<svg width="15" height="15" viewBox="0 0 15 15" fill="none" xmlns="http://www.w3.org/2000/svg">
<path d="M7.30274 0.549805C5.91827 0.549805 4.56489 0.960348 3.41375 1.72952C2.2626 2.49869 1.36539 3.59194 0.835581 4.87102C0.305767 6.1501 0.167144 7.55757 0.437241 8.91544C0.707337 10.2733 1.37402 11.5206 2.35299 12.4996C3.33196 13.4785 4.57924 14.1452 5.93711 14.4153C7.29497 14.6854 8.70244 14.5468 9.98152 14.017C11.2606 13.4871 12.3539 12.5899 13.123 11.4388C13.8922 10.2877 14.3027 8.93427 14.3027 7.5498C14.3027 5.69329 13.5652 3.91281 12.2525 2.60006C10.9397 1.2873 9.15925 0.549805 7.30274 0.549805ZM7.30274 13.5498C6.11605 13.5498 4.95601 13.1979 3.96932 12.5386C2.98262 11.8793 2.21359 10.9423 1.75946 9.84591C1.30533 8.74955 1.18651 7.54315 1.41803 6.37926C1.64954 5.21538 2.22098 4.14628 3.0601 3.30716C3.89921 2.46805 4.96831 1.8966 6.1322 1.66509C7.29608 1.43358 8.50248 1.5524 9.59884 2.00653C10.6952 2.46065 11.6323 3.22969 12.2916 4.21638C12.9508 5.20308 13.3027 6.36312 13.3027 7.5498C13.3027 9.1411 12.6706 10.6672 11.5454 11.7924C10.4202 12.9177 8.89404 13.5498 7.30274 13.5498Z" fill="white"/>
</svg>
