<svg width="22" height="19" viewBox="0 0 22 19" fill="none" xmlns="http://www.w3.org/2000/svg">
<g clip-path="url(#clip0_3111_7008)">
<path fill-rule="evenodd" clip-rule="evenodd" d="M15.8571 1.69771C16.1475 1.34579 16.6734 1.29158 17.0318 1.57664L19.8637 3.82873C20.0595 3.98442 20.1732 4.21857 20.1732 4.46594C20.1732 4.71331 20.0595 4.94745 19.8637 5.10315L17.0318 7.35524C16.6734 7.6403 16.1475 7.58609 15.8571 7.23417C15.5668 6.88224 15.622 6.36587 15.9804 6.08081L16.9799 5.28597H8.95456C7.37331 5.28597 5.88345 5.78696 4.80796 6.64227C3.73724 7.49379 3.18215 8.60708 3.18215 9.7208C3.18215 10.1737 2.80821 10.5408 2.34693 10.5408C1.88566 10.5408 1.51172 10.1737 1.51172 9.7208C1.51172 8.04717 2.34895 6.48728 3.75656 5.36784C5.15942 4.25219 7.0309 3.64591 8.95456 3.64591H16.9799L15.9804 2.85107C15.622 2.56601 15.5668 2.04963 15.8571 1.69771ZM19.338 8.90078C19.7992 8.90078 20.1732 9.26792 20.1732 9.7208C20.1732 11.3944 19.336 12.9543 17.9283 14.0738C16.5255 15.1894 14.654 15.7957 12.7303 15.7957H4.70501L5.70447 16.5905C6.06291 16.8756 6.11812 17.392 5.82779 17.7439C5.53745 18.0958 5.01151 18.15 4.65307 17.865L1.82123 15.6129C1.62545 15.4572 1.51172 15.223 1.51172 14.9757C1.51172 14.7283 1.62545 14.4942 1.82123 14.3385L4.65307 12.0864C5.01151 11.8013 5.53745 11.8555 5.82779 12.2074C6.11812 12.5594 6.06291 13.0757 5.70447 13.3608L4.70501 14.1556H12.7303C14.3116 14.1556 15.8015 13.6546 16.8769 12.7993C17.9477 11.9478 18.5028 10.8345 18.5028 9.7208C18.5028 9.26792 18.8767 8.90078 19.338 8.90078Z" fill="#FFABBB"/>
<path d="M8.45557 10.9594C8.23356 10.9594 8.04199 10.8891 7.88086 10.7484C7.71973 10.6078 7.63916 10.4109 7.63916 10.1578C7.63916 9.94336 7.71615 9.75879 7.87012 9.6041C8.02409 9.44941 8.21387 9.37207 8.43945 9.37207C8.66504 9.37207 8.85661 9.44941 9.01416 9.6041C9.17529 9.75527 9.25586 9.93984 9.25586 10.1578C9.25586 10.4074 9.17529 10.6043 9.01416 10.7484C8.85661 10.8891 8.67041 10.9594 8.45557 10.9594Z" fill="#FFABBB"/>
<path d="M11.4638 10.9594C11.2418 10.9594 11.0502 10.8891 10.8891 10.7484C10.728 10.6078 10.6474 10.4109 10.6474 10.1578C10.6474 9.94336 10.7244 9.75879 10.8784 9.6041C11.0323 9.44941 11.2221 9.37207 11.4477 9.37207C11.6733 9.37207 11.8649 9.44941 12.0224 9.6041C12.1835 9.75527 12.2641 9.93984 12.2641 10.1578C12.2641 10.4074 12.1835 10.6043 12.0224 10.7484C11.8649 10.8891 11.6787 10.9594 11.4638 10.9594Z" fill="#FFABBB"/>
<path d="M14.4721 10.9594C14.25 10.9594 14.0585 10.8891 13.8973 10.7484C13.7362 10.6078 13.6556 10.4109 13.6556 10.1578C13.6556 9.94336 13.7326 9.75879 13.8866 9.6041C14.0406 9.44941 14.2304 9.37207 14.4559 9.37207C14.6815 9.37207 14.8731 9.44941 15.0306 9.6041C15.1918 9.75527 15.2723 9.93984 15.2723 10.1578C15.2723 10.4074 15.1918 10.6043 15.0306 10.7484C14.8731 10.8891 14.6869 10.9594 14.4721 10.9594Z" fill="#FFABBB"/>
</g>
<defs>
<clipPath id="clip0_3111_7008">
<rect width="22" height="18" fill="white" transform="translate(0 0.927551)"/>
</clipPath>
</defs>
</svg>
