<svg width="17" height="16" viewBox="0 0 17 16" fill="none" xmlns="http://www.w3.org/2000/svg">
<path d="M10.8333 1.84405L16.4175 11.1449C17.22 12.4807 16.8258 14.2382 15.5366 15.0699C15.1039 15.35 14.5996 15.4994 14.0841 15.4999H2.91496C1.39746 15.4999 0.166626 14.2249 0.166626 12.6507C0.166626 12.1182 0.310793 11.5974 0.581626 11.1449L6.16663 1.84405C6.96829 0.508215 8.66329 0.0990486 9.95246 0.930715C10.3091 1.16072 10.6108 1.47322 10.8333 1.84405ZM8.98329 2.54322C8.88127 2.4776 8.76701 2.43334 8.64741 2.41311C8.52781 2.39289 8.40535 2.39712 8.28743 2.42555C8.16951 2.45398 8.05857 2.50601 7.96132 2.57852C7.86408 2.65102 7.78254 2.74248 7.72163 2.84738L2.13746 12.1499C2.04675 12.3015 1.99894 12.4749 1.99913 12.6515C1.99913 13.1765 2.40913 13.6015 2.91579 13.6015H14.0833C14.255 13.6015 14.4225 13.5515 14.5675 13.4582C14.7755 13.32 14.9222 13.1068 14.977 12.8631C15.0318 12.6193 14.9905 12.3639 14.8616 12.1499L9.27746 2.84738C9.20422 2.7249 9.10387 2.62085 8.98413 2.54322H8.98329ZM8.49996 12.1665C8.27894 12.1665 8.06698 12.0788 7.9107 11.9225C7.75442 11.7662 7.66663 11.5542 7.66663 11.3332C7.66663 11.1122 7.75442 10.9002 7.9107 10.744C8.06698 10.5877 8.27894 10.4999 8.49996 10.4999C8.72097 10.4999 8.93293 10.5877 9.08921 10.744C9.24549 10.9002 9.33329 11.1122 9.33329 11.3332C9.33329 11.5542 9.24549 11.7662 9.08921 11.9225C8.93293 12.0788 8.72097 12.1665 8.49996 12.1665ZM8.49996 4.66655C8.72097 4.66655 8.93293 4.75435 9.08921 4.91063C9.24549 5.06691 9.33329 5.27887 9.33329 5.49988V8.83322C9.33329 9.05423 9.24549 9.26619 9.08921 9.42247C8.93293 9.57875 8.72097 9.66655 8.49996 9.66655C8.27894 9.66655 8.06698 9.57875 7.9107 9.42247C7.75442 9.26619 7.66663 9.05423 7.66663 8.83322V5.49988C7.66663 5.27887 7.75442 5.06691 7.9107 4.91063C8.06698 4.75435 8.27894 4.66655 8.49996 4.66655Z" fill="white"/>
</svg>
