<svg width="41" height="41" viewBox="0 0 41 41" fill="none" xmlns="http://www.w3.org/2000/svg">
<circle cx="20.5" cy="20.6624" r="20" fill="black" fill-opacity="0.8"/>
<path fill-rule="evenodd" clip-rule="evenodd" d="M17.0495 12.0686C17.0495 11.4366 16.6688 10.8669 16.0849 10.625C15.5011 10.3832 14.829 10.5169 14.3821 10.9637L8.65296 16.6929C8.34846 16.9974 8.19591 17.3963 8.19531 17.7954V17.7978V17.8001C8.19562 18.0111 8.23776 18.2123 8.31387 18.3959C8.39012 18.5801 8.50315 18.7528 8.65296 18.9026L14.3821 24.6318C14.829 25.0787 15.5011 25.2123 16.0849 24.9705C16.6688 24.7286 17.0495 24.1589 17.0495 23.5269V19.3603H25.513C26.6181 19.3603 27.6779 19.7992 28.4593 20.5806C29.2407 21.362 29.6797 22.4219 29.6797 23.5269C29.6797 24.632 29.2407 25.6918 28.4593 26.4732C27.6779 27.2546 26.6181 27.6936 25.513 27.6936H24.0807C23.2178 27.6936 22.5182 28.3931 22.5182 29.2561C22.5182 30.119 23.2178 30.8186 24.0807 30.8186H25.513C27.4469 30.8186 29.3016 30.0504 30.669 28.6829C32.0365 27.3155 32.8047 25.4608 32.8047 23.5269C32.8047 21.5931 32.0365 19.7384 30.669 18.3709C29.3016 17.0035 27.4469 16.2353 25.513 16.2353H17.0495V12.0686Z" fill="white"/>
</svg>
