<?xml version="1.0" encoding="utf-8"?>
<!-- Generator: Adobe Illustrator 23.0.0, SVG Export Plug-In . SVG Version: 6.00 Build 0)  -->
<svg version="1.1" id="圖層_1" xmlns="http://www.w3.org/2000/svg" xmlns:xlink="http://www.w3.org/1999/xlink" x="0px" y="0px"
	 viewBox="0 0 14 20" style="enable-background:new 0 0 14 20;" xml:space="preserve">
<style type="text/css">
	.st0{fill:#FFFFFF;}
</style>
<path class="st0" d="M7,13c1.1,0,2.1-0.4,2.8-1.2C10.6,11,11,10,11,9V4c0-1.1-0.4-2.1-1.2-2.8C9.1,0.4,8.1,0,7,0S4.9,0.4,4.2,1.2
	C3.4,1.9,3,2.9,3,4v5c0,1.1,0.4,2.1,1.2,2.8C4.9,12.6,5.9,13,7,13z"/>
<path class="st0" d="M14,9c0-0.3-0.1-0.5-0.3-0.7S13.3,8,13,8s-0.5,0.1-0.7,0.3S12,8.7,12,9c0,1.3-0.5,2.6-1.5,3.5
	C9.6,13.5,8.3,14,7,14s-2.6-0.5-3.5-1.5C2.5,11.6,2,10.3,2,9c0-0.3-0.1-0.5-0.3-0.7S1.3,8,1,8S0.5,8.1,0.3,8.3S0,8.7,0,9
	c0,1.7,0.6,3.3,1.7,4.6s2.6,2.1,4.3,2.3V18H3.9c-0.2,0-0.5,0.1-0.6,0.3C3.1,18.4,3,18.7,3,18.9v0.2c0,0.2,0.1,0.5,0.3,0.6
	C3.5,19.9,3.7,20,3.9,20h6.2c0.2,0,0.5-0.1,0.6-0.3c0.2-0.2,0.3-0.4,0.3-0.6v-0.2c0-0.2-0.1-0.5-0.3-0.6c-0.2-0.2-0.4-0.3-0.6-0.3H8
	v-2.1c1.7-0.2,3.2-1.1,4.3-2.3S14,10.7,14,9z"/>
</svg>
