<svg width="14" height="21" viewBox="0 0 14 21" fill="none" xmlns="http://www.w3.org/2000/svg">
<path d="M7 13.5C8.06087 13.5 9.07828 13.0786 9.82843 12.3284C10.5786 11.5783 11 10.5609 11 9.5V4.5C11 3.43913 10.5786 2.42172 9.82843 1.67157C9.07828 0.921427 8.06087 0.5 7 0.5C5.93913 0.5 4.92172 0.921427 4.17157 1.67157C3.42143 2.42172 3 3.43913 3 4.5V9.5C3 10.5609 3.42143 11.5783 4.17157 12.3284C4.92172 13.0786 5.93913 13.5 7 13.5Z" fill="white"/>
<path d="M14 9.5C14 9.23478 13.8946 8.98043 13.7071 8.79289C13.5196 8.60536 13.2652 8.5 13 8.5C12.7348 8.5 12.4804 8.60536 12.2929 8.79289C12.1054 8.98043 12 9.23478 12 9.5C12 10.8261 11.4732 12.0979 10.5355 13.0355C9.59785 13.9732 8.32608 14.5 7 14.5C5.67392 14.5 4.40215 13.9732 3.46447 13.0355C2.52678 12.0979 2 10.8261 2 9.5C2 9.23478 1.89464 8.98043 1.70711 8.79289C1.51957 8.60536 1.26522 8.5 1 8.5C0.734784 8.5 0.48043 8.60536 0.292893 8.79289C0.105357 8.98043 0 9.23478 0 9.5C0.00197111 11.1818 0.609407 12.8068 1.71118 14.0775C2.81295 15.3482 4.3354 16.1797 6 16.42V18.5H3.89C3.65396 18.5 3.42758 18.5938 3.26068 18.7607C3.09377 18.9276 3 19.154 3 19.39V19.61C3 19.846 3.09377 20.0724 3.26068 20.2393C3.42758 20.4062 3.65396 20.5 3.89 20.5H10.11C10.346 20.5 10.5724 20.4062 10.7393 20.2393C10.9062 20.0724 11 19.846 11 19.61V19.39C11 19.154 10.9062 18.9276 10.7393 18.7607C10.5724 18.5938 10.346 18.5 10.11 18.5H8V16.42C9.6646 16.1797 11.187 15.3482 12.2888 14.0775C13.3906 12.8068 13.998 11.1818 14 9.5Z" fill="white"/>
</svg>
