<svg width="15" height="15" viewBox="0 0 15 15" fill="none" xmlns="http://www.w3.org/2000/svg">
<path d="M7.5 0C11.6421 0 15 3.35786 15 7.5C15 11.6421 11.6421 15 7.5 15C4.71986 15 2.29513 13.4862 0.999749 11.239L3.64013 9.72015C4.40979 11.0551 5.84841 11.9559 7.5 11.9559C9.96091 11.9559 11.9559 9.96091 11.9559 7.5C11.9559 5.03909 9.96091 3.04413 7.5 3.04413C6.44516 3.04413 5.47835 3.41314 4.71589 4.02649L6.68517 5.42725L0 7.65655V0.670162L2.17712 2.21924C3.53595 0.8494 5.41809 0 7.5 0Z" fill="white"/>
</svg>
