<svg width="24" height="24" viewBox="0 0 24 24" fill="none" xmlns="http://www.w3.org/2000/svg">
<circle cx="12" cy="12" r="12" fill="#ccc" fill-opacity="1"/>
<g clip-path="url(#clip0_2348_15176)">
<path d="M12.7881 11.9999L17.4233 7.36467C17.5149 7.2577 17.5628 7.12011 17.5574 6.97939C17.5519 6.83867 17.4936 6.70518 17.394 6.6056C17.2944 6.50602 17.161 6.44768 17.0202 6.44225C16.8795 6.43681 16.7419 6.48468 16.635 6.57628L11.9997 11.2115L7.36442 6.57069C7.25913 6.4654 7.11633 6.40625 6.96743 6.40625C6.81853 6.40625 6.67573 6.4654 6.57044 6.57069C6.46516 6.67598 6.40601 6.81878 6.40601 6.96768C6.40601 7.11658 6.46516 7.25938 6.57044 7.36467L11.2113 11.9999L6.57044 16.6352C6.51191 16.6853 6.46437 16.747 6.43081 16.8164C6.39725 16.8858 6.37839 16.9613 6.37542 17.0383C6.37244 17.1153 6.38542 17.1921 6.41353 17.2639C6.44164 17.3356 6.48428 17.4008 6.53877 17.4553C6.59326 17.5098 6.65843 17.5524 6.73018 17.5805C6.80193 17.6086 6.87872 17.6216 6.95572 17.6186C7.03273 17.6156 7.10828 17.5968 7.17765 17.5632C7.24702 17.5297 7.30871 17.4821 7.35883 17.4236L11.9997 12.7883L16.635 17.4236C16.7419 17.5152 16.8795 17.5631 17.0202 17.5576C17.161 17.5522 17.2944 17.4939 17.394 17.3943C17.4936 17.2947 17.5519 17.1612 17.5574 17.0205C17.5628 16.8798 17.5149 16.7422 17.4233 16.6352L12.7881 11.9999Z" fill="white" fill-opacity="1"/>
</g>
<defs>
<clipPath id="clip0_2348_15176">
<rect width="20.129" height="20.129" fill="white" transform="translate(1.93555 1.93555)"/>
</clipPath>
</defs>
</svg>
