<svg width="35" height="35" viewBox="0 0 35 35" fill="none" xmlns="http://www.w3.org/2000/svg">
<path d="M20.8484 18.1933V16.2164H11.9521V13.251L7.00977 17.2049L11.9521 21.1588V18.1933H20.8484Z" fill="#C4C4C4"/>
<path d="M24.7992 8.30823H15.903C14.8127 8.30823 13.926 9.19489 13.926 10.2852V14.2391H15.903V10.2852H24.7992V24.1238H15.903V20.1699H13.926V24.1238C13.926 25.2141 14.8127 26.1007 15.903 26.1007H24.7992C25.8895 26.1007 26.7762 25.2141 26.7762 24.1238V10.2852C26.7762 9.19489 25.8895 8.30823 24.7992 8.30823Z" fill="#C4C4C4"/>
<path d="M17.8926 33.2677C9.02109 33.2677 1.82932 26.076 1.82932 17.2045H-0.044167C-0.044167 27.1107 7.98639 35.1412 17.8926 35.1412V33.2677ZM33.9558 17.2045C33.9558 26.076 26.7641 33.2677 17.8926 33.2677V35.1412C27.7988 35.1412 35.8293 27.1107 35.8293 17.2045H33.9558ZM17.8926 1.14121C26.7641 1.14121 33.9558 8.33298 33.9558 17.2045H35.8293C35.8293 7.29828 27.7988 -0.732277 17.8926 -0.732277V1.14121ZM17.8926 -0.732277C7.98639 -0.732277 -0.044167 7.29828 -0.044167 17.2045H1.82932C1.82932 8.33298 9.02109 1.14121 17.8926 1.14121V-0.732277Z" fill="#C4C4C4"/>
</svg>
