<svg width="24" height="24" viewBox="0 0 24 24" fill="none" xmlns="http://www.w3.org/2000/svg">
<g clip-path="url(#clip0_1303_10512)">
<path d="M11.9686 23.0494C18.0888 23.0494 23.0502 18.0848 23.0502 11.9606C23.0502 5.83647 18.0888 0.871872 11.9686 0.871872C5.84838 0.871872 0.886963 5.83647 0.886963 11.9606C0.886963 18.0848 5.84838 23.0494 11.9686 23.0494Z" fill="#110070"/>
<path d="M11.9686 22.8401C17.9732 22.8401 22.8408 17.9692 22.8408 11.9606C22.8408 5.95204 17.9732 1.08112 11.9686 1.08112C5.96408 1.08112 1.09644 5.95204 1.09644 11.9606C1.09644 17.9692 5.96408 22.8401 11.9686 22.8401Z" fill="url(#paint0_radial_1303_10512)"/>
<path d="M10.4091 17.5764C10.3956 17.5176 10.249 17.3464 10.1369 17.3079C10.0248 17.2697 9.91488 17.4731 9.84288 17.1354C9.60644 17.2712 9.50444 17.0981 9.50444 17.0981C9.50444 17.0981 9.24963 17.1131 9.20013 17.4251C9.07882 17.5689 8.76776 18.0911 8.93294 17.5479C9.09926 17.0014 8.75744 17.505 8.72576 17.7797C8.66651 17.9016 8.56619 17.9138 8.62919 17.3655C8.41019 17.2898 8.29807 16.7814 8.41826 16.7717C8.27876 16.5773 8.38826 16.2801 8.50451 16.2958C8.62076 16.3108 8.82007 16.0419 8.81407 15.9793C8.80788 15.9173 8.90388 15.9617 8.89807 15.543C8.89188 15.1236 9.05613 15.0195 9.06963 15.3705C9.08369 15.72 9.29257 15.2559 9.27119 15.0778C9.24944 14.9008 9.29182 14.4999 9.41932 14.7369C9.27119 14.151 9.38801 14.1281 9.47688 14.5179C9.69982 14.5356 9.70751 14.6543 9.70751 14.6543C9.95407 14.5935 10.0722 14.7793 10.0915 14.8836C10.3199 14.6139 10.5509 14.9048 10.5509 14.9048C10.5509 14.9048 10.7101 14.8519 10.6339 15.1288C10.5573 15.4048 10.9649 15.2556 10.8676 15.0572C11.0678 14.9558 11.3654 15.2629 11.4591 15.4727C11.5529 15.6833 11.2984 15.9812 11.4968 16.0532C11.6961 16.1248 11.6088 16.4717 11.6088 16.4717C11.6088 16.4717 12.0258 16.7031 11.7363 16.9016L11.6378 17.1379C11.6378 17.1379 11.8264 17.3483 11.8908 17.223C11.9549 17.0976 11.9776 17.3505 11.9776 17.3505C11.9536 17.3059 12.0239 17.6113 12.2839 17.6754C12.5449 17.7392 12.7101 18.1519 12.4204 18.1568C12.1317 18.1616 12.1094 18.1538 12.0312 18.3223C11.9532 18.4901 11.5848 18.4961 11.3937 18.2788C11.1906 18.3476 10.8295 18.2589 10.9358 18.0966C10.7607 18.1988 10.5953 17.9244 10.732 17.8018C10.8689 17.6801 10.6551 17.5223 10.5833 17.6968C10.5123 17.8716 10.1343 17.9576 10.1607 17.6604C10.1686 17.5723 10.3699 17.5208 10.3724 17.5944C10.4093 17.6794 10.4243 17.5875 10.4091 17.5764Z" fill="url(#paint1_radial_1303_10512)"/>
<path d="M19.3992 9.0735C19.4568 9.13087 19.5706 9.11794 19.6334 9.1005C19.6966 9.08231 19.6878 9.0375 19.7423 9.01987C19.796 9.00169 20.0033 9.1005 19.9492 9.31575C19.8235 9.33319 19.7778 9.486 19.7778 9.486C19.7778 9.486 19.652 9.53962 19.5884 9.513C19.5254 9.486 19.5254 9.49481 19.4352 9.50344C19.345 9.513 19.1283 9.38756 19.3628 9.38756C19.5976 9.38756 19.3362 9.27956 19.2368 9.27956C19.1378 9.27956 19.2188 9.18094 19.3364 9.20812C19.2547 9.0735 19.2998 8.97431 19.3992 9.0735Z" fill="url(#paint2_radial_1303_10512)"/>
<path d="M18.5859 9.56044C18.523 9.62288 18.5952 9.8115 18.6762 9.80231C18.7569 9.7935 18.8834 9.75769 18.8834 9.75769C18.8834 9.75769 18.9462 9.88313 18.8834 9.91931C18.8206 9.95494 18.637 9.93919 18.8748 10.0269C19.1182 10.1164 19.181 10.0894 19.199 10.0444C19.2174 9.99994 19.298 9.8475 19.3435 9.85669C19.3795 9.77606 19.2174 9.70425 19.3075 9.65006C19.3972 9.59625 19.3257 9.39938 19.3257 9.39938C19.3257 9.39938 19.1992 9.40819 19.1452 9.498C19.091 9.58763 19.0194 9.48919 18.9652 9.48919C18.9576 9.52493 18.9421 9.55852 18.9198 9.58744L18.884 9.50625C18.8836 9.50644 18.6309 9.49763 18.5859 9.56044Z" fill="url(#paint3_radial_1303_10512)"/>
<path d="M16.9011 9.70819C16.8933 9.68512 16.9728 9.59212 16.9516 9.7125C16.9026 9.79819 17.1492 9.87506 17.2184 9.77981C17.4499 9.46237 16.9998 9.30862 16.8044 9.45619C16.6073 9.60506 16.4986 9.28594 16.7251 9.24037C16.9508 9.19481 16.9699 8.78662 16.7211 8.78512C16.9407 8.67675 16.6366 8.352 16.3851 8.29669C16.3444 7.94756 15.9762 7.72556 15.7825 7.85212C15.5869 7.97925 15.5703 7.95712 15.2836 7.78294C14.9982 7.60987 14.8608 8.14294 15.0708 8.37619C15.2819 8.61075 15.1287 8.98875 15.1373 8.92425C15.1373 8.92425 15.0578 9.06731 15.0631 9.12075C14.8214 9.20269 14.7509 8.86256 14.6009 8.78719C14.4916 8.92969 14.3153 9.00581 14.3153 9.00581L14.3284 8.71575C14.3284 8.71575 13.5783 8.30719 13.3478 8.42156C13.0638 8.50912 12.9966 9.16687 13.2544 9.26325C13.5128 9.36056 12.9304 9.60281 13.5147 10.2186C14.1147 10.851 14.3468 10.869 14.4691 10.7661C14.4994 10.7402 14.5518 10.7014 14.6155 10.6581C14.6213 10.6824 14.6311 10.7057 14.6461 10.7278C14.7963 10.9536 14.2969 11.1317 14.2274 11.4551C14.1567 11.7821 14.2219 12.3902 14.518 12.411C14.5744 12.0868 15.1287 12.2014 14.827 12.495C14.5201 12.7942 14.7355 12.8471 14.7355 12.8471C14.7355 12.8471 14.7499 13.4079 15.2196 13.2287C15.2059 13.2607 15.1951 13.3018 15.1883 13.3466C15.0571 13.3202 14.7363 13.2799 14.6577 13.5037C14.5587 13.7861 14.1396 13.4079 13.8462 13.5349C13.5544 13.6607 13.1283 14.0739 13.2719 14.3646C13.5475 14.2339 13.7584 14.8234 13.3735 14.7024C12.9871 14.5811 13.0621 14.8112 13.0621 14.8112C13.0621 14.8112 12.6597 15.1286 13.0364 15.4663C12.8918 15.4886 12.6346 15.6497 12.7212 16.0033C12.7212 16.0033 12.556 16.0091 12.5337 16.3256C11.9943 16.4344 12.0273 16.6016 12.8386 16.4183C12.5112 16.5879 13.0675 16.6682 13.3141 16.6455C13.561 16.623 14.209 16.9425 13.7221 16.9459C13.2344 16.9489 13.3795 17.1876 13.9639 17.1988C14.5473 17.2108 14.4859 17.346 14.5726 17.3402C14.6592 17.334 15.0363 17.6316 15.016 17.7966C14.9948 17.9616 15.4111 18.1329 15.6818 17.9437C15.6957 18.1155 16.4076 17.9816 16.513 17.6721C17.284 17.7898 17.2662 17.646 17.0946 17.5547C16.7086 17.4958 16.0002 16.9824 16.7684 17.2466C17.5328 17.5101 16.7963 17.0391 16.5949 16.8581C16.156 16.7728 16.1337 16.407 16.1337 16.407C16.1337 16.407 16.3761 16.269 16.1849 15.924C16.6589 15.8361 16.3726 15.6694 16.4258 15.5102C16.4791 15.3508 16.7198 15.1476 16.8023 15.1312C16.8179 15.1099 16.9471 15.1356 16.8273 15.1843C16.7238 15.1852 16.7973 15.4766 16.921 15.4916C17.3395 15.5424 17.2173 14.9959 16.9713 14.886C16.7247 14.7752 16.9461 14.4744 17.1192 14.6769C17.2923 14.8791 17.6783 14.652 17.5334 14.3961C17.7636 14.5556 17.8878 14.0394 17.7897 13.7434C18.0976 13.4766 18.0874 12.9446 17.8495 12.8254C17.7323 12.7669 17.6759 12.7292 17.6474 12.6564C17.7888 12.5897 17.9763 12.5404 18.0499 12.6062C18.1696 12.7144 18.5028 12.4161 18.4816 12.0673C18.6218 12.1442 18.8451 11.4334 18.6554 11.1846C19.0898 10.5772 18.9728 10.5221 18.8275 10.6239C18.6089 10.9269 17.8911 11.2892 18.4476 10.7524C18.9876 10.2313 18.3038 10.6266 18.0753 10.7113C17.806 11.0482 17.5206 10.8862 17.5206 10.8862C17.5206 10.8862 17.5326 10.6102 17.185 10.6044C17.3457 10.1614 17.0869 10.3213 16.9962 10.2006C16.906 10.0791 16.8732 9.78356 16.9011 9.70819Z" fill="url(#paint4_radial_1303_10512)"/>
<path d="M11.2688 5.26819C11.2015 5.44406 11.4888 5.72962 11.6332 5.63775C11.7779 5.54494 11.9851 5.36081 11.9851 5.36081C11.9851 5.36081 12.2048 5.53744 12.1162 5.66325C12.0267 5.78869 11.6707 5.92969 12.1859 5.8725C12.7147 5.81419 12.811 5.70506 12.8084 5.60419C12.8056 5.50369 12.8347 5.14331 12.9262 5.11819C12.929 4.93331 12.5667 4.95037 12.6922 4.7655C12.8176 4.58137 12.5232 4.27875 12.5232 4.27875C12.5232 4.27875 12.2939 4.413 12.2652 4.63125C12.2363 4.84931 12.0218 4.73175 11.9202 4.78181C11.9467 4.89094 11.9153 5.00812 11.9153 5.00812L11.7826 4.89075C11.7826 4.89075 11.3022 5.109 11.2688 5.26819Z" fill="url(#paint5_radial_1303_10512)"/>
<path d="M12.1284 14.4988C12.0656 14.5613 12.1376 14.7495 12.2184 14.7409C12.2996 14.7317 12.4257 14.6961 12.4257 14.6961C12.4257 14.6961 12.4887 14.8215 12.4257 14.8575C12.3626 14.8931 12.1794 14.8778 12.4167 14.9649C12.6599 15.0546 12.7233 15.0278 12.7413 14.9831C12.7593 14.9383 12.8403 14.7857 12.8855 14.7945C12.9219 14.7141 12.7593 14.6422 12.8493 14.5888C12.9397 14.5344 12.8681 14.3376 12.8681 14.3376C12.8681 14.3376 12.7417 14.3464 12.6875 14.4362C12.6335 14.5258 12.5613 14.427 12.5071 14.427C12.4998 14.4628 12.4845 14.4965 12.4625 14.5256L12.4263 14.445C12.4259 14.445 12.1732 14.436 12.1284 14.4988Z" fill="url(#paint6_radial_1303_10512)"/>
<mask id="mask0_1303_10512" style="mask-type:luminance" maskUnits="userSpaceOnUse" x="1" y="1" width="22" height="22">
<path d="M11.9686 22.8401C17.9732 22.8401 22.8408 17.9692 22.8408 11.9606C22.8408 5.95204 17.9732 1.08112 11.9686 1.08112C5.96408 1.08112 1.09644 5.95204 1.09644 11.9606C1.09644 17.9692 5.96408 22.8401 11.9686 22.8401Z" fill="white"/>
</mask>
<g mask="url(#mask0_1303_10512)">
<path d="M12.2124 1.05881C12.0423 1.09688 12.3269 1.71319 12.3269 1.71319C12.3269 1.71319 12.3168 2.127 12.3869 2.148C12.4569 2.16919 12.9194 2.28469 13.1613 2.58619C13.4045 2.88731 13.2781 3.04613 13.0758 2.95894C12.8733 2.87231 12.9269 3.13819 12.9269 3.13819C12.9269 3.13819 13.5378 3.33675 13.0766 3.324C12.6142 3.31181 13.3878 3.64931 13.3366 3.68456C13.2854 3.72019 13.2566 3.91444 13.2566 3.91444C13.2566 3.91444 12.8488 3.94838 13.1943 4.0935C14.3634 4.58588 13.0694 4.45294 13.0694 4.45294L12.9043 4.656L13.2311 5.06588L13.4823 5.2455C13.4823 5.2455 14.0113 5.06906 14.1763 5.0415C14.3413 5.01431 14.7579 4.7025 14.7579 4.7025C14.7579 4.7025 14.8828 4.79194 14.7894 4.60969C14.6958 4.42744 15.1333 4.50863 15.2422 4.64438L16.0143 4.99313C16.0248 5.02161 16.0438 5.04612 16.0689 5.06325C16.2194 5.16881 15.9328 5.34994 15.9618 5.54175C15.9909 5.7315 16.1658 6.04669 16.358 6.0135C16.3244 5.83256 16.7038 5.81063 16.5718 6.01256C16.4399 6.21338 16.5862 6.20963 16.5862 6.20963C16.5862 6.20963 16.7081 6.49369 16.9659 6.33581C16.9556 6.42244 17.0084 6.59681 17.2299 6.60825C17.2299 6.60825 17.2064 6.70294 17.3883 6.76988C17.3636 7.09425 17.4674 7.10456 17.4931 6.61181C17.5389 6.82819 17.6784 6.52388 17.7061 6.37838C17.7343 6.23213 18.0343 5.91075 17.9531 6.19481C17.8726 6.47644 18.8373 6.57938 18.9446 6.24319C19.0524 5.90419 19.4369 5.72738 19.4484 5.676C19.4602 5.6235 18.5926 5.54288 18.6884 5.58375C18.7844 5.62444 18.9629 5.40694 18.8966 5.21288C19.0042 5.23463 19.0516 4.78313 18.881 4.66631C19.0946 4.21706 19.0027 4.203 18.9151 4.29244C18.8086 4.51744 18.3693 4.857 18.6673 4.43869C18.9678 4.01606 18.5452 4.38581 18.3986 4.47769C18.2699 4.72781 18.044 4.67925 18.044 4.67925C18.044 4.67925 18.0026 4.509 17.7607 4.566C17.7888 4.26488 17.6388 4.40963 17.5516 4.35056C17.4984 4.31438 17.4474 4.23338 17.4159 4.16381C17.6242 4.24819 17.9038 4.338 17.8556 4.18331C17.8243 4.08188 18.2499 4.30331 18.2647 4.25719L18.7968 4.18331L19.3138 3.8565C16.0087 0.902439 12.2124 1.05881 12.2124 1.05881Z" fill="url(#paint7_linear_1303_10512)"/>
</g>
<mask id="mask1_1303_10512" style="mask-type:luminance" maskUnits="userSpaceOnUse" x="1" y="1" width="22" height="22">
<path d="M11.9686 22.8401C17.9732 22.8401 22.8408 17.9692 22.8408 11.9606C22.8408 5.95204 17.9732 1.08112 11.9686 1.08112C5.96408 1.08112 1.09644 5.95204 1.09644 11.9606C1.09644 17.9692 5.96408 22.8401 11.9686 22.8401Z" fill="white"/>
</mask>
<g mask="url(#mask1_1303_10512)">
<path d="M7.29915 2.01019C5.32459 2.89669 3.83472 4.72387 3.83472 4.72387C3.83472 4.72387 4.00984 5.12456 4.07078 5.09494C4.13247 5.06587 3.62997 6.14606 3.99878 6.20681C4.36965 6.26775 5.43615 5.53856 5.23834 5.60569C5.04109 5.67206 5.34953 5.211 5.34953 5.211C5.34953 5.211 5.90453 4.96481 5.57622 5.24887C5.25072 5.53106 6.00915 5.28375 5.99734 5.3415C5.98534 5.39962 6.09522 5.55562 6.09522 5.55562C6.09522 5.55562 5.83515 5.83462 6.17097 5.72231C7.32353 5.33456 6.32284 6.05437 6.32284 6.05437L6.34253 6.29944L6.84109 6.38625L7.13584 6.35812C7.13584 6.35812 7.39365 5.90325 7.4934 5.77969C7.59334 5.65575 7.6854 5.16637 7.6854 5.16637C7.6854 5.16637 7.83522 5.15081 7.64565 5.079C7.45572 5.00719 7.82697 4.78331 7.99778 4.81106L8.80122 4.5615C8.82828 4.57526 8.85884 4.58061 8.88897 4.57687C9.0729 4.5555 8.98028 4.87612 9.13065 4.99706C9.27953 5.11725 9.62153 5.23331 9.74378 5.08481C9.59734 4.97381 9.86959 4.70925 9.90447 4.94437C9.93934 5.17781 10.0477 5.07919 10.0477 5.07919C10.0477 5.07919 10.3359 4.58362 10.428 4.29937C10.4784 4.36969 10.9487 3.68137 10.8062 3.35306C10.6622 3.02062 10.8956 2.70769 10.8695 2.65912C10.8429 2.6115 10.7021 2.75812 10.8062 2.72287C10.911 2.68706 10.5093 2.86706 10.4563 2.33794C10.4025 1.79831 10.3241 2.38331 10.2722 2.55637C10.3427 2.838 11.0733 1.41844 11.0733 1.41844L12.0153 1.03425C12.0155 1.03481 9.87147 0.855374 7.29915 2.01019Z" fill="url(#paint8_linear_1303_10512)"/>
</g>
<path opacity="0.5" d="M11.7627 8.9475C14.9421 8.9475 17.5195 7.27763 17.5195 5.21775C17.5195 3.15786 14.9421 1.488 11.7627 1.488C8.58327 1.488 6.00586 3.15786 6.00586 5.21775C6.00586 7.27763 8.58327 8.9475 11.7627 8.9475Z" fill="url(#paint9_linear_1303_10512)"/>
<path d="M23.4668 8.91806L23.2003 10.6269C23.2003 10.6269 22.8197 7.46325 22.353 6.28031C21.6377 4.46794 21.3193 4.48256 21.3175 4.48537C21.7963 5.70281 21.7095 6.35681 21.7095 6.35681C21.7095 6.35681 20.8607 4.04344 18.6162 3.30731C15.9583 2.43619 14.6044 2.75081 14.6143 2.76319C14.6245 2.77537 17.3614 3.2415 17.8468 3.90862C17.8468 3.90862 16.6842 3.90862 15.5271 4.24181C15.475 4.25681 19.7839 4.78012 20.665 9.08606C20.665 9.08606 20.1927 8.10037 19.6084 7.93312C19.9924 9.10181 19.894 11.3196 19.5282 12.4219C19.4813 12.5638 19.4329 11.8089 18.7122 11.4844C18.9428 13.1383 18.6983 15.7622 17.5506 16.4846C17.4612 16.5409 18.27 13.8949 17.7133 14.9179C14.3895 20.0141 10.438 16.9798 8.83503 15.8983C10.1217 16.2135 11.488 15.9866 12.2792 15.4457C13.0776 14.8997 13.5497 14.5011 13.974 14.5952C14.398 14.6901 14.6803 14.2646 14.3509 13.8872C14.0213 13.5088 13.2208 12.9891 12.138 13.2726C11.3745 13.4724 10.428 14.3175 8.98334 13.4619C7.75109 12.7316 7.75934 12.1387 7.75934 11.7611C7.75934 11.3831 8.09553 10.8086 8.70734 10.9027C9.25522 10.9875 8.96647 10.6657 9.55616 10.9027C9.71684 10.9674 9.54003 10.1317 9.31147 9.59625C9.75172 8.6775 11.1797 8.4045 11.2862 8.32387C11.4793 8.178 11.3732 8.10506 11.439 7.88512C11.5007 7.68019 11.5401 7.1265 9.94184 7.27969C9.20628 7.35 8.73847 6.39694 8.58509 6.16575C8.63478 5.871 8.71447 5.60194 8.82266 5.35537C8.93216 5.13094 9.05178 4.92506 9.17141 4.76925L9.27078 4.63781C9.50891 4.35994 9.80159 4.12219 10.1526 3.92494C10.3358 3.82144 8.10397 3.91837 7.09972 5.22712C6.83028 5.26237 6.46053 5.18456 6.04709 5.18456C5.52922 5.18456 5.12216 5.24119 4.74547 5.33569C4.68509 5.35106 4.58797 5.34262 4.46872 5.3145C4.13741 4.971 3.19934 4.14562 3.15641 3.02587C3.15641 3.02587 1.79272 4.074 1.99672 6.93112C1.97872 8.51156 1.51241 8.05987 1.27241 8.91731C1.16066 9.32362 1.44022 9.62962 1.44022 9.64162C1.43984 9.64781 1.77547 9.27825 1.77547 9.27825C1.77547 9.27825 -0.338969 12.9418 2.39216 17.6188C4.74584 21.6506 8.69609 23.4324 12.7948 23.0857C13.5228 23.0387 14.2455 22.9291 14.9547 22.7582C24.505 20.4493 23.4668 8.91806 23.4668 8.91806Z" fill="url(#paint10_linear_1303_10512)"/>
<path d="M8.55352 6.02794C8.55352 6.02794 8.96621 7.15575 9.8919 7.15219C11.6581 7.14506 11.6936 7.16981 11.7048 7.38431C11.7401 8.03813 11.4172 8.25225 11.2938 8.34525C11.1699 8.43788 9.4884 9.41288 9.42652 9.69188C9.36483 9.97069 7.48608 7.04006 7.48608 7.04006L8.55352 6.02794Z" fill="url(#paint11_linear_1303_10512)"/>
<path d="M9.4939 7.24387C9.4939 7.24387 10.0676 7.97644 9.63377 8.2695C9.1039 8.62744 10.383 8.70544 10.8465 8.44537C11.31 8.18531 11.5948 7.803 11.611 7.74619C11.6271 7.68919 11.7793 7.17562 10.8118 7.35469C10.2002 7.46775 9.97596 7.49381 9.4939 7.24387Z" fill="url(#paint12_linear_1303_10512)"/>
<path d="M11.2942 8.34543C11.3879 8.27456 11.596 8.133 11.6755 7.78293C11.6176 7.80637 11.6122 7.73981 11.5437 7.76868C10.2449 9.12375 10.195 8.18006 9.4861 8.37018C8.83998 8.547 8.69467 8.78962 8.66748 8.80837L8.69654 8.84962C8.88273 8.94431 9.06104 9.24581 9.19529 9.51525C9.32636 9.67144 9.41429 9.74812 9.42686 9.6915C9.48854 9.41306 11.1706 8.43806 11.2942 8.34543Z" fill="url(#paint13_linear_1303_10512)"/>
<path d="M1.58955 9.42187C1.32443 9.97837 -0.377324 12.8541 2.39993 17.6402C5.11774 22.3249 9.82117 23.8547 14.6232 22.8154C15.9941 22.5188 17.5745 21.4462 18.5819 20.6591C17.9347 19.0267 18.3177 19.0881 17.9709 19.3027C14.1026 21.6977 11.0274 19.3352 8.64724 19.0333C-0.108825 17.9237 1.6203 9.40462 1.6203 9.40462L1.58955 9.42187Z" fill="url(#paint14_linear_1303_10512)"/>
<path d="M8.88048 15.9868C9.70566 16.2341 11.5064 16.0209 12.2797 15.4457C12.8007 15.0583 13.1943 14.7662 13.5256 14.6441C12.9402 14.2464 12.931 14.8101 11.7003 15.0951C9.13641 15.6898 7.8916 14.4051 7.8916 14.4051C8.07329 15.4217 8.70798 15.9167 8.99391 16.0926C8.91816 16.0254 8.87841 15.9861 8.88048 15.9868Z" fill="url(#paint15_linear_1303_10512)"/>
<path d="M6.10041 20.6297C6.10041 20.6297 3.9661 18.2212 3.37022 15.5241C2.49178 14.6944 1.86835 13.9927 1.45435 13.4854C1.69341 15.4046 2.67197 18.3844 6.10041 20.6297Z" fill="url(#paint16_linear_1303_10512)"/>
<path d="M4.31985 18.4423C4.31985 18.4423 2.84704 16.3453 3.39923 14.565C3.8961 12.9641 3.29367 13.9164 2.94323 14.2586C2.58942 14.6044 2.40735 13.2383 2.41654 13.0808L2.41635 13.0757C2.39404 13.0708 1.7151 16.3489 4.31985 18.4423Z" fill="url(#paint17_linear_1303_10512)"/>
<path d="M2.13774 16.6144C2.13774 16.6144 1.80193 12.3585 2.86336 11.757C4.54899 10.8019 3.00399 11.0252 2.51518 11.2903C2.0213 11.5579 2.06705 9.79631 2.1368 9.62906C2.20524 9.46388 0.397177 11.2944 2.13774 16.6144Z" fill="url(#paint18_linear_1303_10512)"/>
<path d="M9.51187 4.09106C9.51187 4.09106 8.17762 5.4465 8.18756 5.45138C8.19768 5.45606 8.22581 7.19081 8.26949 7.68263C8.42943 7.87163 8.92762 9.09975 8.54624 8.82713C8.15662 8.54888 8.43749 8.54288 8.47162 8.68406V8.691C8.44556 8.70319 7.50318 6.65119 9.51187 4.09106Z" fill="#A40000"/>
<path d="M3.16438 3.04688C3.16438 3.04688 1.74613 4.13513 2.01707 7.11938C3.11488 6.13388 4.6672 5.39719 4.6672 5.39719C4.40676 5.23294 3.21182 4.27688 3.16438 3.04688Z" fill="url(#paint19_linear_1303_10512)"/>
<path d="M6.65991 6.3105L8.7901 8.95969C8.17566 6.35813 8.64797 4.79738 10.1609 3.94575C10.3848 3.81957 7.00004 3.99131 6.65991 6.3105Z" fill="url(#paint20_linear_1303_10512)"/>
<path d="M5.15875 12.855C5.52213 10.566 8.70757 10.9026 8.70757 10.9026C8.56563 11.0081 8.01982 11.0711 7.86363 11.508C7.34763 12.9495 7.83982 16.0986 11.053 17.4193C11.3918 17.559 4.62194 16.2375 5.15875 12.855Z" fill="url(#paint21_linear_1303_10512)"/>
<path d="M11.657 7.845C11.6415 7.84219 11.6276 7.84257 11.6207 7.85194C11.5815 7.90444 11.43 8.08313 11.0698 8.37694C10.4008 8.92106 10.1184 8.78325 9.62004 8.89482C9.39316 8.94563 9.17735 9.09788 9.03223 9.21994C9.09091 9.31482 9.14585 9.41738 9.19498 9.51544C9.32604 9.67163 9.41398 9.74832 9.42654 9.69169C9.48841 9.41307 11.1703 8.43807 11.2939 8.34507C11.382 8.27925 11.5684 8.14838 11.657 7.845Z" fill="url(#paint22_linear_1303_10512)"/>
<path d="M9.60331 11.3051C9.62225 10.8214 9.58812 9.6465 9.08544 9.13669C8.70106 8.74725 8.61106 8.30081 8.5595 7.79175C4.38294 9.35194 3.78669 11.3912 4.20425 11.325C7.54456 10.7951 8.48356 10.7304 9.60331 11.3051Z" fill="url(#paint23_linear_1303_10512)"/>
<path d="M0.698912 14.1636C0.698912 14.1636 0.989162 10.3924 2.87672 9.01238C4.35854 7.92825 3.20766 8.322 2.6356 8.367C2.03222 8.41463 1.71047 8.78175 1.82691 8.64675L1.83272 8.63644C1.81266 8.61319 0.416162 9.78525 0.698912 14.1636Z" fill="url(#paint24_linear_1303_10512)"/>
<path d="M0.5 11.2663C0.5 11.2663 1.51156 8.05538 3.55569 8.08275C4.91131 8.10075 3.836 6.93694 3.42594 6.76013C2.99806 6.57694 2.89587 6.58406 2.79594 6.67256C2.64613 6.80531 1.30119 6.75413 0.5 11.2663Z" fill="url(#paint25_linear_1303_10512)"/>
<path d="M14.2899 14.4092C14.4436 14.2586 14.3365 13.6802 13.3704 13.3298C12.4938 13.0112 11.1254 13.8208 10.7195 13.9806C10.7195 13.9806 12.2694 13.6903 12.8504 13.7869C13.6383 13.9181 13.9149 14.7771 14.2899 14.4092Z" fill="url(#paint26_linear_1303_10512)"/>
<path d="M1.99324 13.3515C1.99324 13.3515 1.82542 10.1947 3.23992 8.84662C4.35067 7.78781 3.43961 8.23856 2.9703 8.33794C2.4753 8.44294 2.24842 8.78175 2.33036 8.65744L2.33392 8.64825C2.31499 8.631 1.28486 9.75337 1.99324 13.3515Z" fill="url(#paint27_linear_1303_10512)"/>
<path d="M0.903809 12.3486C0.903809 12.3486 1.50156 9.2445 3.19956 8.27718C4.53287 7.51725 3.54006 7.73531 3.06043 7.71862C2.55475 7.70137 2.25306 7.9755 2.36237 7.87443L2.36781 7.86656C2.35393 7.845 1.08343 8.68612 0.903809 12.3486Z" fill="url(#paint28_linear_1303_10512)"/>
<path d="M2.91975 13.6228C2.91975 13.6228 2.59294 11.7412 3.29737 10.8152C3.8595 10.0762 3.366 10.4376 3.105 10.5442C2.83275 10.6554 2.72962 10.875 2.76675 10.7944C2.80256 10.7158 1.55475 11.6827 2.91975 13.6228Z" fill="url(#paint29_linear_1303_10512)"/>
<path d="M3.29321 11.8487C3.29321 11.8487 2.9664 9.96712 3.67065 9.04087C4.23277 8.30193 3.73927 8.66343 3.47827 8.76993C3.20602 8.88112 3.10271 9.10087 3.14002 9.02025C3.17602 8.9415 1.9284 9.90843 3.29321 11.8487Z" fill="url(#paint30_linear_1303_10512)"/>
<path d="M1.31787 9.27657C1.31787 9.27657 2.08137 7.71244 3.09593 7.40438C3.90556 7.15875 3.34793 7.1625 3.09856 7.10157C2.83793 7.03838 2.64462 7.14507 2.71493 7.1055C2.78375 7.06688 1.346 7.11469 1.31787 9.27657Z" fill="url(#paint31_linear_1303_10512)"/>
<path d="M1.20874 10.5142C1.20874 10.5142 1.97205 8.95012 2.9868 8.64225C3.79643 8.39662 3.2388 8.4 2.98924 8.33906C2.72862 8.27606 2.5353 8.38294 2.6058 8.34319C2.67443 8.30456 1.23668 8.35256 1.20874 10.5142Z" fill="url(#paint32_linear_1303_10512)"/>
<path d="M1.76318 10.1728C1.76318 10.1728 3.10962 7.41375 4.89968 6.87019C6.32825 6.43687 5.34462 6.44306 4.90418 6.336C4.44425 6.22462 4.10337 6.41344 4.22731 6.34331C4.34862 6.27506 1.8125 6.35925 1.76318 10.1728Z" fill="url(#paint33_linear_1303_10512)"/>
<path d="M2.68359 8.68688C2.68359 8.68688 3.52097 6.97088 4.63434 6.63281C5.52291 6.36319 4.91091 6.36713 4.63716 6.30056C4.35103 6.23138 4.13916 6.34856 4.21622 6.30488C4.29159 6.26213 2.71416 6.31463 2.68359 8.68688Z" fill="url(#paint34_linear_1303_10512)"/>
<path d="M2.95654 9.29306C2.95654 9.29306 3.71986 7.72894 4.73442 7.42125C5.54423 7.17544 4.98661 7.179 4.73704 7.11806C4.47623 7.05488 4.28292 7.16175 4.35342 7.12219C4.42186 7.08319 2.98448 7.13156 2.95654 9.29306Z" fill="url(#paint35_linear_1303_10512)"/>
<path d="M11.7052 7.38431C11.6964 7.22119 11.6722 7.16812 10.8916 7.15462C10.981 7.19512 11.1354 7.2765 11.3052 7.41581C11.5295 7.59956 11.5659 7.8045 11.5891 8.01656C11.6649 7.87237 11.7205 7.67287 11.7052 7.38431Z" fill="url(#paint36_linear_1303_10512)"/>
<path d="M7.12161 5.20575L6.44455 6.29512C6.44455 6.29512 3.73742 5.87043 1.44223 8.09081C1.25267 8.27418 2.94355 4.16456 7.12161 5.20575Z" fill="url(#paint37_linear_1303_10512)"/>
<path d="M4.69043 7.15556C4.69043 7.15556 5.41193 5.81606 6.34737 5.41125C5.8638 5.42643 4.77799 5.80462 4.69043 7.15556Z" fill="url(#paint38_linear_1303_10512)"/>
<path d="M1.91455 8.46281C1.91455 8.46281 2.67786 6.89869 3.69261 6.59063C4.50224 6.345 3.94461 6.34856 3.69524 6.28763C3.43443 6.22463 3.2413 6.3315 3.31161 6.29156C3.38005 6.25313 1.9423 6.30094 1.91455 8.46281Z" fill="url(#paint39_linear_1303_10512)"/>
<path d="M3.51367 7.36069C3.51367 7.36069 4.30136 6.09994 5.2383 5.76431C4.76655 5.74875 3.68392 6.04913 3.51367 7.36069Z" fill="url(#paint40_linear_1303_10512)"/>
<path d="M4.86366 5.20706C4.86366 5.20706 4.26984 5.46656 3.22266 5.03119L4.15622 5.50069L4.86366 5.20706Z" fill="url(#paint41_linear_1303_10512)"/>
<path d="M4.57665 5.37375C4.57665 5.37375 3.7854 5.68031 2.26196 5.22394L3.5649 5.74238C3.72634 5.59331 4.57665 5.37375 4.57665 5.37375Z" fill="url(#paint42_linear_1303_10512)"/>
<path d="M5.15438 5.12212C5.15438 5.12212 4.62919 5.28206 3.65869 4.90668L4.59225 5.37581C4.69088 5.28881 5.15438 5.12212 5.15438 5.12212Z" fill="url(#paint43_linear_1303_10512)"/>
<path d="M3.5161 5.72625C3.5161 5.72625 3.12573 6.05025 2.12598 6.06337L2.99054 6.09169L3.5161 5.72625Z" fill="url(#paint44_linear_1303_10512)"/>
<path d="M2.56641 7.38413C2.56641 7.38413 3.90234 5.64394 5.00241 5.25C4.44834 5.23182 2.76609 5.84494 2.56641 7.38413Z" fill="url(#paint45_linear_1303_10512)"/>
<path d="M23.2573 10.3515C23.2573 10.3515 23.4013 13.5803 18.9163 18.0654C18.4178 18.5638 15.7114 21.0992 15.8067 21.8597C15.84 22.1288 22.9073 20.7758 23.2573 10.3515Z" fill="url(#paint46_linear_1303_10512)"/>
<path d="M14.5618 2.75719C19.9642 3.17232 21.0101 7.05675 21.0105 6.81882C21.0243 3.04275 15.8851 2.75588 14.5618 2.75719Z" fill="url(#paint47_linear_1303_10512)"/>
<path d="M16.207 4.23394C16.207 4.23394 19.9522 4.9995 21.0083 8.96907C21.1484 9.49481 20.557 5.74425 20.7395 6.10032C20.9217 6.45807 19.2323 4.35263 16.207 4.23394Z" fill="url(#paint48_linear_1303_10512)"/>
<path d="M17.7039 4.13681C17.7039 4.13681 21.0862 4.842 21.1197 10.2082C21.1434 14.0066 21.7062 11.6342 22.2646 10.7807C22.7461 10.0431 22.417 9.14456 22.4054 9.147C22.4037 9.14737 22.1619 8.44781 22.3248 8.74425C22.3321 8.75737 22.0977 8.55112 22.0992 8.55094C22.1371 8.54512 21.9693 4.69369 17.7039 4.13681Z" fill="url(#paint49_linear_1303_10512)"/>
<path d="M21.5123 4.86375C21.5123 4.86375 22.7271 8.02837 21.4396 9.60206C21.0194 10.1156 20.9723 12.7468 21.4857 12.5051C22.0004 12.2631 21.8886 13.9024 21.8211 14.0887L21.82 14.0946C21.8536 14.1156 24.3584 10.0496 21.5123 4.86375Z" fill="url(#paint50_linear_1303_10512)"/>
<path d="M19.8236 8.19543C19.8236 8.19543 20.5884 10.4346 19.7876 12.0352L20.3934 13.3881C20.8376 12.2968 21.4035 9.9885 19.8236 8.19543Z" fill="url(#paint51_linear_1303_10512)"/>
<path d="M21.1685 7.92918C21.1685 7.92918 21.6974 11.4831 19.7891 14.6914C19.8187 15.4335 19.6884 16.1051 19.5097 16.6584C19.5929 16.7677 19.7041 16.8426 19.8509 16.8557C19.7862 16.9155 19.7217 16.9716 19.6593 17.0246C19.5449 17.0754 19.4274 17.1287 19.3136 17.1838L19.241 17.3481C19.385 17.2465 19.5245 17.1386 19.6591 17.0248C20.0489 16.8525 20.3997 16.719 20.399 16.7181L20.1556 16.8073C20.0399 16.8493 19.9389 16.8636 19.8509 16.8557C21.3245 15.5126 23.3441 12.5087 21.1685 7.92918ZM18.9449 17.3773C18.7766 17.4761 18.6539 17.5687 18.6279 17.6404C18.6084 17.6925 18.7233 17.6623 18.9219 17.5509C18.9322 17.4911 18.9406 17.4328 18.9449 17.3773Z" fill="url(#paint52_linear_1303_10512)"/>
<path d="M18.8147 11.7158C18.8147 11.7158 20.3194 15.9984 15.5104 20.0139C15.2267 20.2508 17.4625 20.1493 17.6581 20.0606C18.2344 19.7989 18.9156 18.0518 18.8352 18.2606C18.7555 18.4697 21.0683 15.1727 18.8147 11.7158Z" fill="url(#paint53_linear_1303_10512)"/>
<path d="M20.9189 14.4323C20.9189 14.4323 20.0114 19.9871 13.736 20.4343C11.279 20.6096 7.7508 20.0344 8.06337 20.9717C8.1603 21.2621 8.62212 22.4738 9.67624 22.7546C12.5289 23.5157 20.1187 23.2665 20.9189 14.4323Z" fill="url(#paint54_linear_1303_10512)"/>
<path d="M15.6854 18.6362C15.6854 18.6362 11.8458 19.5133 9.3584 17.3959C7.08234 15.4581 8.21146 17.0889 8.52027 17.8935C8.83734 18.7187 7.05346 18.0883 6.78552 17.9556C6.51834 17.8245 11.0106 20.6419 15.6854 18.6362Z" fill="url(#paint55_linear_1303_10512)"/>
<path d="M13.2111 20.7289C13.2111 20.7289 8.63089 19.8287 7.18076 16.725C5.94157 14.0736 6.26951 16.0192 6.21364 16.9048C6.15495 17.8157 4.87057 16.5718 4.69901 16.3554L4.69039 16.3476C4.66489 16.3642 7.0527 20.1077 13.2111 20.7289Z" fill="url(#paint56_linear_1303_10512)"/>
<path d="M8.20792 20.3276C8.20792 20.3276 6.02036 18.6332 5.03392 16.3097C4.20499 16.0217 3.10305 15.3636 3.0813 15.2507C3.43136 17.0561 5.27486 19.164 8.20792 20.3276Z" fill="url(#paint57_linear_1303_10512)"/>
</g>
<defs>
<radialGradient id="paint0_radial_1303_10512" cx="0" cy="0" r="1" gradientUnits="userSpaceOnUse" gradientTransform="translate(12.1205 2.22131) scale(19.4644)">
<stop stop-color="#67C5D5"/>
<stop offset="0.16" stop-color="#66C2D3"/>
<stop offset="0.28" stop-color="#62B9CE"/>
<stop offset="0.385" stop-color="#5CA8C6"/>
<stop offset="0.483" stop-color="#5392BA"/>
<stop offset="0.576" stop-color="#4874AA"/>
<stop offset="0.665" stop-color="#3A5097"/>
<stop offset="0.749" stop-color="#2A2781"/>
<stop offset="0.815" stop-color="#1B006D"/>
<stop offset="1" stop-color="#596AAD"/>
</radialGradient>
<radialGradient id="paint1_radial_1303_10512" cx="0" cy="0" r="1" gradientUnits="userSpaceOnUse" gradientTransform="translate(12.1173 3.51937) scale(9.7545 9.7545)">
<stop stop-color="#0F80BC"/>
<stop offset="0.338" stop-color="#0A5F9E"/>
<stop offset="1" stop-color="#00145A"/>
</radialGradient>
<radialGradient id="paint2_radial_1303_10512" cx="0" cy="0" r="1" gradientUnits="userSpaceOnUse" gradientTransform="translate(12.1177 3.51937) scale(9.7543 9.75432)">
<stop stop-color="#0F80BC"/>
<stop offset="0.338" stop-color="#0A5F9E"/>
<stop offset="1" stop-color="#00145A"/>
</radialGradient>
<radialGradient id="paint3_radial_1303_10512" cx="0" cy="0" r="1" gradientUnits="userSpaceOnUse" gradientTransform="translate(12.1167 3.51881) scale(9.75581)">
<stop stop-color="#0F80BC"/>
<stop offset="0.338" stop-color="#0A5F9E"/>
<stop offset="1" stop-color="#00145A"/>
</radialGradient>
<radialGradient id="paint4_radial_1303_10512" cx="0" cy="0" r="1" gradientUnits="userSpaceOnUse" gradientTransform="translate(12.277 4.44262) scale(10.7169)">
<stop stop-color="#0F80BC"/>
<stop offset="0.264" stop-color="#0B629B"/>
<stop offset="0.844" stop-color="#031747"/>
<stop offset="1" stop-color="#00022F"/>
</radialGradient>
<radialGradient id="paint5_radial_1303_10512" cx="0" cy="0" r="1" gradientUnits="userSpaceOnUse" gradientTransform="translate(12.1173 3.51881) scale(9.75563 9.75562)">
<stop stop-color="#0F80BC"/>
<stop offset="0.338" stop-color="#0A5F9E"/>
<stop offset="1" stop-color="#00145A"/>
</radialGradient>
<radialGradient id="paint6_radial_1303_10512" cx="0" cy="0" r="1" gradientUnits="userSpaceOnUse" gradientTransform="translate(12.1175 3.519) scale(9.75506 9.75506)">
<stop stop-color="#0F80BC"/>
<stop offset="0.338" stop-color="#0A5F9E"/>
<stop offset="1" stop-color="#00145A"/>
</radialGradient>
<linearGradient id="paint7_linear_1303_10512" x1="14.3248" y1="3.97069" x2="17.4736" y2="4.23919" gradientUnits="userSpaceOnUse">
<stop stop-color="#0F80BC"/>
<stop offset="0.338" stop-color="#0A5F9E"/>
<stop offset="1" stop-color="#00145A"/>
</linearGradient>
<linearGradient id="paint8_linear_1303_10512" x1="7.2504" y1="4.4475" x2="5.51022" y2="7.00331" gradientUnits="userSpaceOnUse">
<stop stop-color="#0F80BC"/>
<stop offset="0.338" stop-color="#0A5F9E"/>
<stop offset="1" stop-color="#00145A"/>
</linearGradient>
<linearGradient id="paint9_linear_1303_10512" x1="11.7627" y1="7.32375" x2="11.7627" y2="3.09337" gradientUnits="userSpaceOnUse">
<stop offset="0.014" stop-opacity="0"/>
<stop offset="0.65" stop-color="#C4E0E3" stop-opacity="0.2"/>
<stop offset="0.822" stop-color="#C4E0E3"/>
<stop offset="0.85" stop-color="#CDE5E8"/>
<stop offset="0.944" stop-color="#E8F4F7"/>
<stop offset="1" stop-color="#F2FAFC"/>
</linearGradient>
<linearGradient id="paint10_linear_1303_10512" x1="12.1039" y1="11.3867" x2="14.7163" y2="9.85237" gradientUnits="userSpaceOnUse">
<stop stop-color="#DF731B"/>
<stop offset="0.545" stop-color="#DF731B"/>
<stop offset="0.701" stop-color="#EC8811"/>
<stop offset="0.859" stop-color="#F4950B"/>
<stop offset="1" stop-color="#F79A09"/>
</linearGradient>
<linearGradient id="paint11_linear_1303_10512" x1="7.87571" y1="7.77469" x2="9.90352" y2="7.94831" gradientUnits="userSpaceOnUse">
<stop offset="0.011" stop-color="#941403"/>
<stop offset="0.897" stop-color="#E85C0A"/>
</linearGradient>
<linearGradient id="paint12_linear_1303_10512" x1="4.62752" y1="7.21275" x2="11.9481" y2="8.12775" gradientUnits="userSpaceOnUse">
<stop offset="0.011" stop-color="#941403"/>
<stop offset="0.136" stop-color="#A32104"/>
<stop offset="0.498" stop-color="#C84107"/>
<stop offset="0.789" stop-color="#DF5509"/>
<stop offset="0.972" stop-color="#E85C0A"/>
</linearGradient>
<linearGradient id="paint13_linear_1303_10512" x1="9.16323" y1="9.14887" x2="9.74692" y2="8.892" gradientUnits="userSpaceOnUse">
<stop stop-color="#F2C8A9"/>
<stop offset="1" stop-color="#FFFFCC"/>
</linearGradient>
<linearGradient id="paint14_linear_1303_10512" x1="7.30211" y1="16.2951" x2="17.1204" y2="16.6993" gradientUnits="userSpaceOnUse">
<stop stop-color="#B30000"/>
<stop offset="1" stop-color="#DF731B"/>
</linearGradient>
<linearGradient id="paint15_linear_1303_10512" x1="9.63854" y1="14.7712" x2="14.7579" y2="16.5992" gradientUnits="userSpaceOnUse">
<stop stop-color="#941403"/>
<stop offset="1" stop-color="#DF731B"/>
</linearGradient>
<linearGradient id="paint16_linear_1303_10512" x1="1.26686" y1="16.9048" x2="6.25255" y2="17.1494" gradientUnits="userSpaceOnUse">
<stop offset="0.056" stop-color="#B30000"/>
<stop offset="1" stop-color="#DE5C01"/>
</linearGradient>
<linearGradient id="paint17_linear_1303_10512" x1="3.17637" y1="14.9981" x2="4.87191" y2="23.6733" gradientUnits="userSpaceOnUse">
<stop offset="0.056" stop-color="#DE7210"/>
<stop offset="1" stop-color="#F6C08F"/>
</linearGradient>
<linearGradient id="paint18_linear_1303_10512" x1="2.51272" y1="12.2292" x2="2.0896" y2="21.6224" gradientUnits="userSpaceOnUse">
<stop offset="0.056" stop-color="#DE7210"/>
<stop offset="1" stop-color="#F6C08F"/>
</linearGradient>
<linearGradient id="paint19_linear_1303_10512" x1="3.48857" y1="6.63263" x2="2.46838" y2="4.0185" gradientUnits="userSpaceOnUse">
<stop offset="0.011" stop-color="#941403"/>
<stop offset="0.472" stop-color="#E85C0A"/>
<stop offset="1" stop-color="#F9BD5F"/>
</linearGradient>
<linearGradient id="paint20_linear_1303_10512" x1="7.85054" y1="7.23225" x2="10.2952" y2="4.01907" gradientUnits="userSpaceOnUse">
<stop offset="0.197" stop-color="#DE7210"/>
<stop offset="0.843" stop-color="#F9BD5F"/>
<stop offset="1" stop-color="#FFFCCF"/>
</linearGradient>
<linearGradient id="paint21_linear_1303_10512" x1="6.55807" y1="11.6183" x2="9.03607" y2="16.5743" gradientUnits="userSpaceOnUse">
<stop offset="0.017" stop-color="#941403"/>
<stop offset="0.5" stop-color="#E35100"/>
<stop offset="1" stop-color="#DF731B"/>
</linearGradient>
<linearGradient id="paint22_linear_1303_10512" x1="10.301" y1="8.57888" x2="10.9198" y2="9.13969" gradientUnits="userSpaceOnUse">
<stop stop-color="#EEA272"/>
<stop offset="0.186" stop-color="#EFA777"/>
<stop offset="0.406" stop-color="#F2B585"/>
<stop offset="0.643" stop-color="#F6CD9C"/>
<stop offset="0.89" stop-color="#FCEEBB"/>
<stop offset="1" stop-color="#FFFFCC"/>
</linearGradient>
<linearGradient id="paint23_linear_1303_10512" x1="6.69181" y1="9.90356" x2="9.5345" y2="12.8044" gradientUnits="userSpaceOnUse">
<stop offset="0.197" stop-color="#DF731B"/>
<stop offset="0.843" stop-color="#F9BD5F"/>
<stop offset="1" stop-color="#FFFCCF"/>
</linearGradient>
<linearGradient id="paint24_linear_1303_10512" x1="2.60642" y1="8.52618" x2="-0.101458" y2="18.8333" gradientUnits="userSpaceOnUse">
<stop offset="0.056" stop-color="#DE7210"/>
<stop offset="1" stop-color="#F6C08F"/>
</linearGradient>
<linearGradient id="paint25_linear_1303_10512" x1="2.88325" y1="7.62532" x2="-1.12421" y2="14.1868" gradientUnits="userSpaceOnUse">
<stop offset="0.056" stop-color="#DE7210"/>
<stop offset="1" stop-color="#F2C06E"/>
</linearGradient>
<linearGradient id="paint26_linear_1303_10512" x1="15.1758" y1="13.5422" x2="11.3482" y2="14.2733" gradientUnits="userSpaceOnUse">
<stop offset="0.005" stop-color="#FFFAEE"/>
<stop offset="0.276" stop-color="#F5F89B"/>
<stop offset="0.31" stop-color="#F3ED91"/>
<stop offset="0.467" stop-color="#ECC267"/>
<stop offset="0.618" stop-color="#E6A046"/>
<stop offset="0.761" stop-color="#E2872E"/>
<stop offset="0.892" stop-color="#E07820"/>
<stop offset="1" stop-color="#DF731B"/>
</linearGradient>
<linearGradient id="paint27_linear_1303_10512" x1="2.88499" y1="8.35076" x2="1.7627" y2="17.1865" gradientUnits="userSpaceOnUse">
<stop offset="0.056" stop-color="#DE7210"/>
<stop offset="1" stop-color="#F2C06E"/>
</linearGradient>
<linearGradient id="paint28_linear_1303_10512" x1="3.06673" y1="7.63304" x2="-0.157133" y2="15.9331" gradientUnits="userSpaceOnUse">
<stop offset="0.056" stop-color="#DE7210"/>
<stop offset="1" stop-color="#F2C06E"/>
</linearGradient>
<linearGradient id="paint29_linear_1303_10512" x1="2.89821" y1="11.6789" x2="3.06907" y2="16.147" gradientUnits="userSpaceOnUse">
<stop offset="0.056" stop-color="#DE7210"/>
<stop offset="1" stop-color="#F2C072"/>
</linearGradient>
<linearGradient id="paint30_linear_1303_10512" x1="3.27137" y1="9.90457" x2="3.44227" y2="14.3724" gradientUnits="userSpaceOnUse">
<stop offset="0.056" stop-color="#DE7210"/>
<stop offset="1" stop-color="#F2C072"/>
</linearGradient>
<linearGradient id="paint31_linear_1303_10512" x1="2.36168" y1="7.94325" x2="1.27662" y2="9.96863" gradientUnits="userSpaceOnUse">
<stop offset="0.056" stop-color="#DE7210"/>
<stop offset="1" stop-color="#EED8A5"/>
</linearGradient>
<linearGradient id="paint32_linear_1303_10512" x1="2.25255" y1="9.18112" x2="1.16768" y2="11.2061" gradientUnits="userSpaceOnUse">
<stop offset="0.056" stop-color="#DE7210"/>
<stop offset="1" stop-color="#EED8A5"/>
</linearGradient>
<linearGradient id="paint33_linear_1303_10512" x1="3.482" y1="8.32162" x2="2.43331" y2="10.9254" gradientUnits="userSpaceOnUse">
<stop offset="0.056" stop-color="#DE7210"/>
<stop offset="1" stop-color="#F2C072"/>
</linearGradient>
<linearGradient id="paint34_linear_1303_10512" x1="3.88078" y1="7.05394" x2="1.40091" y2="10.7738" gradientUnits="userSpaceOnUse">
<stop offset="0.056" stop-color="#DE7210"/>
<stop offset="1" stop-color="#F2C072"/>
</linearGradient>
<linearGradient id="paint35_linear_1303_10512" x1="4.04761" y1="7.80506" x2="1.78711" y2="11.1958" gradientUnits="userSpaceOnUse">
<stop offset="0.056" stop-color="#DE7210"/>
<stop offset="1" stop-color="#F2C072"/>
</linearGradient>
<linearGradient id="paint36_linear_1303_10512" x1="11.3208" y1="7.27706" x2="11.4999" y2="7.59619" gradientUnits="userSpaceOnUse">
<stop stop-color="#8B8B89"/>
<stop offset="1" stop-color="#120500"/>
</linearGradient>
<linearGradient id="paint37_linear_1303_10512" x1="4.2748" y1="6.19293" x2="4.2748" y2="5.21306" gradientUnits="userSpaceOnUse">
<stop offset="0.056" stop-color="#DE7210"/>
<stop offset="1" stop-color="#F6C08F"/>
</linearGradient>
<linearGradient id="paint38_linear_1303_10512" x1="4.33408" y1="7.29434" x2="6.47877" y2="4.98215" gradientUnits="userSpaceOnUse">
<stop offset="0.056" stop-color="#DE7210"/>
<stop offset="1" stop-color="#F6C08F"/>
</linearGradient>
<linearGradient id="paint39_linear_1303_10512" x1="2.95818" y1="7.1295" x2="1.87311" y2="9.15469" gradientUnits="userSpaceOnUse">
<stop offset="0.056" stop-color="#DE7210"/>
<stop offset="1" stop-color="#EED8A5"/>
</linearGradient>
<linearGradient id="paint40_linear_1303_10512" x1="3.0878" y1="7.38605" x2="5.32451" y2="5.26497" gradientUnits="userSpaceOnUse">
<stop offset="0.056" stop-color="#DE7210"/>
<stop offset="1" stop-color="#F6C08F"/>
</linearGradient>
<linearGradient id="paint41_linear_1303_10512" x1="2.54511" y1="4.92577" x2="4.91292" y2="5.47091" gradientUnits="userSpaceOnUse">
<stop offset="0.056" stop-color="#DE7210"/>
<stop offset="1" stop-color="#F6C08F"/>
</linearGradient>
<linearGradient id="paint42_linear_1303_10512" x1="1.36609" y1="5.18775" x2="4.76396" y2="5.65313" gradientUnits="userSpaceOnUse">
<stop offset="0.056" stop-color="#DE7210"/>
<stop offset="1" stop-color="#F6C08F"/>
</linearGradient>
<linearGradient id="paint43_linear_1303_10512" x1="3.02297" y1="4.8475" x2="5.19879" y2="5.34837" gradientUnits="userSpaceOnUse">
<stop offset="0.056" stop-color="#DE7210"/>
<stop offset="1" stop-color="#F6C08F"/>
</linearGradient>
<linearGradient id="paint44_linear_1303_10512" x1="2.90073" y1="5.90287" x2="0.906289" y2="5.69831" gradientUnits="userSpaceOnUse">
<stop offset="0.056" stop-color="#DE7210"/>
<stop offset="1" stop-color="#F6C08F"/>
</linearGradient>
<linearGradient id="paint45_linear_1303_10512" x1="2.05988" y1="7.52174" x2="5.14026" y2="4.60072" gradientUnits="userSpaceOnUse">
<stop offset="0.056" stop-color="#DE7210"/>
<stop offset="1" stop-color="#F6C08F"/>
</linearGradient>
<linearGradient id="paint46_linear_1303_10512" x1="16.5585" y1="22.7912" x2="21.9621" y2="14.4566" gradientUnits="userSpaceOnUse">
<stop stop-color="#DE5C01"/>
<stop offset="0.736" stop-color="#FEFD00"/>
<stop offset="0.778" stop-color="#FEFE26"/>
<stop offset="0.837" stop-color="#FFFE54"/>
<stop offset="0.889" stop-color="#FFFF76"/>
<stop offset="0.932" stop-color="#FFFF8B"/>
<stop offset="0.961" stop-color="#FFFF92"/>
</linearGradient>
<linearGradient id="paint47_linear_1303_10512" x1="19.7006" y1="5.11819" x2="16.1623" y2="3.56419" gradientUnits="userSpaceOnUse">
<stop stop-color="#F79A09"/>
<stop offset="0.736" stop-color="#FEFD00"/>
<stop offset="0.778" stop-color="#FEFE26"/>
<stop offset="0.837" stop-color="#FFFE54"/>
<stop offset="0.889" stop-color="#FFFF76"/>
<stop offset="0.932" stop-color="#FFFF8B"/>
<stop offset="0.961" stop-color="#FFFF92"/>
</linearGradient>
<linearGradient id="paint48_linear_1303_10512" x1="22.0773" y1="8.66513" x2="17.1237" y2="4.0665" gradientUnits="userSpaceOnUse">
<stop stop-color="#DE5C01"/>
<stop offset="0.736" stop-color="#FEFD00"/>
<stop offset="0.778" stop-color="#FEFE26"/>
<stop offset="0.837" stop-color="#FFFE54"/>
<stop offset="0.889" stop-color="#FFFF76"/>
<stop offset="0.932" stop-color="#FFFF8B"/>
<stop offset="0.961" stop-color="#FFFF92"/>
</linearGradient>
<linearGradient id="paint49_linear_1303_10512" x1="20.6056" y1="8.3986" x2="18.4714" y2="6.31168" gradientUnits="userSpaceOnUse">
<stop stop-color="#F79A09"/>
<stop offset="0.736" stop-color="#FEFD00"/>
<stop offset="0.778" stop-color="#FEFE26"/>
<stop offset="0.837" stop-color="#FFFE54"/>
<stop offset="0.889" stop-color="#FFFF76"/>
<stop offset="0.932" stop-color="#FFFF8B"/>
<stop offset="0.961" stop-color="#FFFF92"/>
</linearGradient>
<linearGradient id="paint50_linear_1303_10512" x1="21.2468" y1="11.2993" x2="22.4142" y2="7.28362" gradientUnits="userSpaceOnUse">
<stop stop-color="#F79A09"/>
<stop offset="0.736" stop-color="#FEFD00"/>
<stop offset="0.778" stop-color="#FEFE26"/>
<stop offset="0.837" stop-color="#FFFE54"/>
<stop offset="0.889" stop-color="#FFFF76"/>
<stop offset="0.932" stop-color="#FFFF8B"/>
<stop offset="0.961" stop-color="#FFFF92"/>
</linearGradient>
<linearGradient id="paint51_linear_1303_10512" x1="20.413" y1="12.2381" x2="20.2453" y2="9.188" gradientUnits="userSpaceOnUse">
<stop stop-color="#F79A09"/>
<stop offset="0.736" stop-color="#FEFD00"/>
<stop offset="0.778" stop-color="#FEFE26"/>
<stop offset="0.837" stop-color="#FFFE54"/>
<stop offset="0.889" stop-color="#FFFF76"/>
<stop offset="0.932" stop-color="#FFFF8B"/>
<stop offset="0.961" stop-color="#FFFF92"/>
</linearGradient>
<linearGradient id="paint52_linear_1303_10512" x1="19.736" y1="14.8634" x2="21.5405" y2="10.5806" gradientUnits="userSpaceOnUse">
<stop stop-color="#F79A09"/>
<stop offset="0.736" stop-color="#FEFD00"/>
<stop offset="0.778" stop-color="#FEFE26"/>
<stop offset="0.837" stop-color="#FFFE54"/>
<stop offset="0.889" stop-color="#FFFF76"/>
<stop offset="0.932" stop-color="#FFFF8B"/>
<stop offset="0.961" stop-color="#FFFF92"/>
</linearGradient>
<linearGradient id="paint53_linear_1303_10512" x1="17.5749" y1="18.4124" x2="17.5316" y2="13.8139" gradientUnits="userSpaceOnUse">
<stop stop-color="#DE5C01"/>
<stop offset="0.736" stop-color="#FEFD00"/>
<stop offset="0.778" stop-color="#FEFE26"/>
<stop offset="0.837" stop-color="#FFFE54"/>
<stop offset="0.889" stop-color="#FFFF76"/>
<stop offset="0.932" stop-color="#FFFF8B"/>
<stop offset="0.961" stop-color="#FFFF92"/>
</linearGradient>
<linearGradient id="paint54_linear_1303_10512" x1="10.9627" y1="22.1361" x2="19.8348" y2="16.833" gradientUnits="userSpaceOnUse">
<stop stop-color="#B9120D"/>
<stop offset="0.078" stop-color="#BB180D"/>
<stop offset="0.182" stop-color="#C0290C"/>
<stop offset="0.301" stop-color="#C8450A"/>
<stop offset="0.431" stop-color="#D36C08"/>
<stop offset="0.571" stop-color="#E29E05"/>
<stop offset="0.715" stop-color="#F4DA02"/>
<stop offset="0.792" stop-color="#FEFD00"/>
<stop offset="0.814" stop-color="#FEFD07"/>
<stop offset="0.846" stop-color="#FEFD1B"/>
<stop offset="0.884" stop-color="#FEFE3C"/>
<stop offset="0.927" stop-color="#FFFE69"/>
<stop offset="0.974" stop-color="#FFFFA3"/>
<stop offset="1" stop-color="#FFFFC7"/>
</linearGradient>
<linearGradient id="paint55_linear_1303_10512" x1="10.3752" y1="18.1367" x2="19.2968" y2="20.2617" gradientUnits="userSpaceOnUse">
<stop offset="0.056" stop-color="#DE7210"/>
<stop offset="1" stop-color="#F6C08F"/>
</linearGradient>
<linearGradient id="paint56_linear_1303_10512" x1="7.48957" y1="17.3643" x2="17.4567" y2="22.1782" gradientUnits="userSpaceOnUse">
<stop offset="0.056" stop-color="#DE7210"/>
<stop offset="1" stop-color="#F6C08F"/>
</linearGradient>
<linearGradient id="paint57_linear_1303_10512" x1="4.25667" y1="16.4253" x2="10.9221" y2="24.9724" gradientUnits="userSpaceOnUse">
<stop offset="0.056" stop-color="#DE7210"/>
<stop offset="1" stop-color="#F6C08F"/>
</linearGradient>
<clipPath id="clip0_1303_10512">
<rect width="24" height="24" fill="white"/>
</clipPath>
</defs>
</svg>
