<svg width="84" height="20" viewBox="0 0 84 20" fill="none" xmlns="http://www.w3.org/2000/svg">
<path d="M0 0.829673H7.8343V4.04198H3.6387V8.34542H7.59549V11.5568H3.6387V19.7155H0V0.829673Z" fill="white"/>
<path d="M18.3802 14.9902C18.3802 17.4757 18.3802 18.8837 18.4193 19.7155H14.9236C14.854 19.2861 14.8132 18.8525 14.8014 18.4177C14.5394 18.9274 14.13 19.3463 13.6264 19.6199C13.1229 19.8935 12.5486 20.009 11.9785 19.9515C10.5128 19.9515 9.01511 19.2436 9.01511 16.103V4.8103H12.6515V15.2424C12.6515 16.2781 12.9488 16.8036 13.6515 16.8036C14.4557 16.8036 14.7438 16.2781 14.7438 14.8576V4.8103H18.3802V14.9902Z" fill="white"/>
<path d="M20.4817 9.27751C20.4817 6.61479 20.4725 5.36036 20.4449 4.81054H23.9293C23.9966 5.22809 24.0381 5.6494 24.0537 6.07206C24.3351 5.59068 24.7445 5.19673 25.2363 4.93397C25.7282 4.67121 26.2832 4.5499 26.8398 4.58354C28.8378 4.58354 29.8862 5.86487 29.8862 8.45845V19.7144H26.2499V9.22206C26.2499 8.20738 25.9341 7.73236 25.2588 7.73236C24.4362 7.73236 24.1183 8.19086 24.1183 9.66569V19.7165H20.4817V9.27751Z" fill="white"/>
<path d="M41.8 13.6987C41.8 10.7755 41.83 6.63107 41.876 4.31382H41.7769C41.383 8.09198 40.5498 15.7427 40.0326 19.7155H36.9515C36.5345 15.586 35.7209 7.79701 35.327 4.26544H35.209C35.2562 6.48359 35.352 10.5772 35.352 13.8323V19.7155H32.0546V0.829673H37.2696C37.7604 4.42095 38.3135 9.13592 38.5278 11.6927H38.6061C38.8987 8.95965 39.5264 4.99106 40.1062 0.829673H45.2976V19.7155H41.8V13.6987Z" fill="white"/>
<path d="M56.7489 14.9902C56.7489 17.4757 56.7489 18.8837 56.7881 19.7155H53.2921C53.2227 19.2861 53.1819 18.8525 53.1701 18.4177C52.9081 18.9274 52.4987 19.3463 51.9952 19.6199C51.4916 19.8935 50.9174 20.009 50.3472 19.9515C48.8816 19.9515 47.3836 19.2436 47.3836 16.103V4.8103H51.0199V15.2424C51.0199 16.2781 51.3173 16.8036 52.0202 16.8036C52.8244 16.8036 53.1126 16.2781 53.1126 14.8576V4.8103H56.7489V14.9902Z" fill="white"/>
<path d="M61.731 14.8866V15.586C61.731 16.4098 61.9016 17.0932 62.6574 17.0932C63.2174 17.0932 63.4984 16.7392 63.4984 15.9397C63.4984 15.1296 63.3026 14.5673 61.5399 13.4474C59.3139 12.036 58.4222 10.9609 58.4222 8.79872C58.3566 8.22544 58.422 7.64474 58.6135 7.10042C58.805 6.5561 59.1176 6.06238 59.5277 5.65648C59.9379 5.25057 60.4348 4.9431 60.9811 4.75724C61.5273 4.57138 62.1087 4.51198 62.6813 4.58353C66.0085 4.58353 66.9288 6.41209 66.9288 8.93299V9.57012H63.5723V8.66563C63.5723 7.72315 63.3127 7.3935 62.7681 7.3935C62.2173 7.3935 61.9823 7.79465 61.9823 8.47425C61.9823 9.17132 62.2865 9.52056 63.5676 10.3108C66.3261 12.0198 67.1544 13.2157 67.1544 15.4314C67.2528 16.0466 67.2041 16.6763 67.0124 17.269C66.8207 17.8617 66.4913 18.4006 66.0513 18.8415C65.6113 19.2825 65.0731 19.613 64.4807 19.806C63.8884 19.9989 63.2588 20.0489 62.6435 19.9517C58.8321 19.9517 58.2466 17.5908 58.2466 15.4385V14.8866H61.731Z" fill="white"/>
<path d="M68.7894 4.81054H72.4269V19.7155H68.7906L68.7894 4.81054ZM68.8078 0H72.4442V3.28852H68.8078V0Z" fill="white"/>
<path d="M83.0769 14.4349V14.9602C83.0769 17.7983 82.2982 19.9517 78.6016 19.9517C75.1036 19.9517 74.2418 17.8811 74.2418 14.6261V9.50924C74.2418 6.93407 75.2142 4.58353 78.763 4.58353C82.616 4.58353 83.1068 7.16107 83.1068 9.20271V9.93894H79.6144V9.04036C79.6144 8.04361 79.4646 7.50205 78.7548 7.50205C78.0613 7.50205 77.877 8.05517 77.877 9.01959V15.5053C77.877 16.3694 78.0268 17.0136 78.7548 17.0136C79.4946 17.0136 79.6144 16.3867 79.6144 15.3982V14.4349H83.0769Z" fill="white"/>
</svg>
