<svg width="20" height="19" viewBox="0 0 20 19" fill="none" xmlns="http://www.w3.org/2000/svg">
<path d="M0.996094 4.88016H19.0052V8.61968H0.996094V4.88016Z" fill="#6ADDD6"/>
<path d="M2.24501 8.61726H17.7539V18.9396H2.24501V8.61726Z" fill="#00C4B8"/>
<path d="M2.24501 8.61726H17.7539V10.0522H2.24501V8.61726Z" fill="#00B2A7"/>
<path d="M8.05479 4.88016H11.9465V18.942H8.05479V4.88016Z" fill="#DC4E45"/>
<path d="M9.16602 4.88016H10.8353V18.942H9.16602V4.88016Z" fill="#FF6B5B"/>
<path d="M10.8353 4.88016L6.81312 0.858002L4.06163 3.60949L5.33229 4.88015L10.8353 4.88016Z" fill="#DC4E45"/>
<path d="M9.26265 4.88015L6.02801 1.64311L4.84673 2.82439L6.9025 4.88015H9.26265Z" fill="#FF6B5B"/>
<path d="M9.16602 4.88016L13.1858 0.858002L15.9372 3.60949L14.669 4.88015L9.16602 4.88016Z" fill="#DC4E45"/>
<path d="M10.7362 4.88015L13.9709 1.64311L15.1521 2.82439L13.0964 4.88015H10.7362Z" fill="#FF6B5B"/>
</svg>
