<svg width="65" height="64" viewBox="0 0 65 64" fill="none" xmlns="http://www.w3.org/2000/svg">
<circle cx="32.5" cy="32" r="32" fill="#FE7523"/>
<path d="M30.4683 19.25C30.4041 19.1853 30.3266 19.1355 30.2411 19.1039C30.1557 19.0723 30.0643 19.0598 29.9735 19.0673C29.8827 19.0747 29.7947 19.1019 29.7155 19.147C29.6363 19.192 29.5679 19.2539 29.5151 19.3281C28.2027 21.2124 27.4993 23.4537 27.4995 25.75C27.4966 26.1519 27.5174 26.5537 27.562 26.9531L15.8745 42.8906C15.5206 43.3727 15.3511 43.9657 15.397 44.562C15.4429 45.1583 15.701 45.7184 16.1245 46.1406L18.3589 48.375C18.7812 48.7985 19.3412 49.0566 19.9375 49.1025C20.5338 49.1484 21.1268 48.979 21.6089 48.625L37.5464 36.9375C37.9458 36.9821 38.3476 37.003 38.7495 37C41.0458 37.0002 43.2871 36.2968 45.1714 34.9844C45.2457 34.9316 45.3075 34.8632 45.3525 34.784C45.3976 34.7049 45.4248 34.6168 45.4322 34.526C45.4397 34.4352 45.4272 34.3439 45.3956 34.2584C45.3641 34.1729 45.3142 34.0954 45.2495 34.0312L30.4683 19.25ZM30.2651 36.0156L27.1401 39.1406C26.9012 39.3716 26.5819 39.5008 26.2495 39.5008C25.9172 39.5008 25.5978 39.3716 25.3589 39.1406C25.1242 38.9036 24.9925 38.5836 24.9925 38.25C24.9925 37.9164 25.1242 37.5964 25.3589 37.3594L28.4839 34.2344C28.7268 34.035 29.0351 33.9332 29.3489 33.9486C29.6627 33.964 29.9596 34.0956 30.1818 34.3178C30.4039 34.5399 30.5355 34.8368 30.5509 35.1506C30.5663 35.4644 30.4645 35.7728 30.2651 36.0156ZM47.9839 32.1719C47.9311 32.2461 47.8627 32.308 47.7836 32.353C47.7044 32.3981 47.6163 32.4253 47.5255 32.4327C47.4347 32.4402 47.3434 32.4277 47.2579 32.3961C47.1725 32.3645 47.0949 32.3147 47.0308 32.25L32.2495 17.4687C32.1848 17.4046 32.135 17.3271 32.1034 17.2416C32.0719 17.1561 32.0594 17.0648 32.0668 16.974C32.0742 16.8832 32.1014 16.7951 32.1465 16.716C32.1916 16.6368 32.2534 16.5684 32.3276 16.5156C34.4939 15.0125 37.1193 14.3181 39.7454 14.5535C42.3715 14.7889 44.8315 15.9392 46.6959 17.8036C48.5603 19.668 49.7106 22.128 49.946 24.7541C50.1814 27.3802 49.487 30.0056 47.9839 32.1719Z" fill="white" fill-opacity="0.9"/>
</svg>
