<svg width="24" height="24" viewBox="0 0 24 24" fill="none" xmlns="http://www.w3.org/2000/svg">
<path d="M19.0001 5V19H5.00012V5H19.0001ZM20.1001 3H3.90012C3.40012 3 3.00012 3.4 3.00012 3.9V20.1C3.00012 20.5 3.40012 21 3.90012 21H20.1001C20.5001 21 21.0001 20.5 21.0001 20.1V3.9C21.0001 3.4 20.5001 3 20.1001 3ZM11.0001 7H17.0001V9H11.0001V7ZM11.0001 11H17.0001V13H11.0001V11ZM11.0001 15H17.0001V17H11.0001V15ZM7.00012 7H9.00012V9H7.00012V7ZM7.00012 11H9.00012V13H7.00012V11ZM7.00012 15H9.00012V17H7.00012V15Z" fill="#727272"/>
</svg>
