<svg width="16" height="16" viewBox="0 0 16 16" fill="none" xmlns="http://www.w3.org/2000/svg">
<path d="M13.7 3.067C12.9 1.692 9.28337 1.40033 8.87504 1.36283L8.4167 1.33366V9.78783C8.31077 9.70219 8.19788 9.62554 8.0792 9.55866C7.66069 9.34802 7.20387 9.22429 6.73626 9.19493C6.26865 9.16557 5.79994 9.23119 5.35837 9.38783C3.6417 9.942 2.53754 11.5253 2.89587 12.917C2.97573 13.2113 3.11536 13.486 3.30604 13.724C3.49672 13.962 3.73438 14.1582 4.0042 14.3003C4.46677 14.5471 4.98412 14.6732 5.50837 14.667C5.93025 14.6666 6.34938 14.5991 6.75004 14.467C8.2917 13.9712 9.33337 12.6462 9.27504 11.3753V4.03783C9.6917 4.08783 10.2625 4.17533 10.8667 4.3045C11.4648 4.39541 12.0394 4.60204 12.5584 4.91283C12.975 5.18783 12.7167 5.7045 12.6959 5.74616C12.4967 6.04856 12.2647 6.32804 12.0042 6.5795C11.9284 6.65464 11.8844 6.756 11.8811 6.86268C11.8779 6.96935 11.9157 7.07321 11.9867 7.15283C12.0578 7.23245 12.1567 7.28176 12.2631 7.2906C12.3694 7.29944 12.4751 7.26713 12.5584 7.20033C12.6459 7.1045 14.875 5.08366 13.7 3.067Z" fill="white"/>
</svg>
