<svg width="64" height="64" viewBox="0 0 64 64" fill="none" xmlns="http://www.w3.org/2000/svg">
<circle cx="32" cy="32" r="32" fill="black" fill-opacity="0.8"/>
<circle cx="32" cy="32" r="31.5" stroke="white" stroke-opacity="0.3"/>
<path d="M42 38.8C40.7333 38.8 39.6 39.3 38.7333 40.0833L26.85 33.1667C26.9333 32.7833 27 32.4 27 32C27 31.6 26.9333 31.2167 26.85 30.8333L38.6 23.9833C39.5 24.8167 40.6833 25.3333 42 25.3333C44.7667 25.3333 47 23.1 47 20.3333C47 17.5667 44.7667 15.3333 42 15.3333C39.2333 15.3333 37 17.5667 37 20.3333C37 20.7333 37.0667 21.1167 37.15 21.5L25.4 28.35C24.5 27.5167 23.3167 27 22 27C19.2333 27 17 29.2333 17 32C17 34.7667 19.2333 37 22 37C23.3167 37 24.5 36.4833 25.4 35.65L37.2667 42.5833C37.1833 42.9333 37.1333 43.3 37.1333 43.6667C37.1333 46.35 39.3167 48.5333 42 48.5333C44.6833 48.5333 46.8667 46.35 46.8667 43.6667C46.8667 40.9833 44.6833 38.8 42 38.8Z" fill="white"/>
</svg>
