<svg width="46" height="19" viewBox="0 0 46 19" fill="none" xmlns="http://www.w3.org/2000/svg">
<path d="M0 4.13132C0 1.92218 1.79086 0.131317 4 0.131317H46V14.1313C46 16.3405 44.2091 18.1313 42 18.1313H0V4.13132Z" fill="#F74768"/>
<path d="M15 4.13132H7V12.1313H15V4.13132ZM10.235 10.1313L8.5 8.38132L9.2 7.67632L10.235 8.71632L12.8 6.13132L13.5 6.83632L10.235 10.1313ZM6 6.13132H5V14.1313H13V13.1313H6V6.13132Z" fill="white"/>
<path d="M19.68 5.29532H20.916V4.70732H22.044V5.29532H23.304V4.70732H24.576V3.67532H23.304V2.97932H22.044V3.67532H20.916V2.97932H19.68V3.67532H18.468V4.70732H19.68V5.29532ZM22.668 12.6873V12.2313H23.976V11.3913H22.668V10.9353H23.976V10.0953H22.668V9.62732H24.3V8.69132H22.776L23.124 8.06732L22.152 7.86332H23.904C24.228 8.05532 24.792 8.48732 25.032 8.72732C25.416 8.10332 25.74 7.31132 26.004 6.42332H26.124V7.69532C26.136 8.78732 25.824 11.1753 24.144 12.6873H22.668ZM20.496 12.2313H21.48V12.6873H20.496V12.2313ZM20.496 10.0953V9.62732H21.48V10.0953H20.496ZM20.496 10.9353H21.48V11.3913H20.496V10.9353ZM22.572 6.32732H23.256V7.02332H22.572V6.32732ZM19.68 6.32732H20.304V7.02332H19.68V6.32732ZM27.492 6.42332H28.152C28.092 7.07132 28.02 7.71932 27.924 8.19932L28.932 8.77532C29.22 7.87532 29.436 6.54332 29.568 5.37932L28.62 5.04332L28.416 5.12732H26.328C26.472 4.47932 26.58 3.81932 26.664 3.13532L25.26 2.95532C25.104 4.51532 24.78 6.06332 24.24 7.20332V5.47532H21.636V7.86332H21.852C21.792 8.10332 21.696 8.41532 21.588 8.69132H20.676C20.748 8.47532 20.82 8.27132 20.892 8.05532L20.172 7.86332H21.276V5.47532H18.744V7.86332H19.692C19.38 8.93132 18.828 9.96332 18.204 10.6353C18.42 10.8993 18.78 11.4993 18.912 11.7633C19.044 11.6193 19.176 11.4633 19.296 11.3073V14.1273H20.496V13.6593H24.264V13.6473C24.384 13.8393 24.504 14.0313 24.576 14.1633C25.992 13.1073 26.676 11.1513 26.82 10.1073C26.952 11.1273 27.528 13.1433 28.812 14.1633C29.016 13.8153 29.412 13.2393 29.664 12.9393C27.864 11.4753 27.492 8.83532 27.492 7.69532V6.42332ZM39.288 5.18732H36.444V4.46732H39.288V5.18732ZM39.288 6.92732H36.444V6.19532H39.288V6.92732ZM40.74 3.37532H35.076V8.00732H40.74V3.37532ZM32.964 5.31932V9.73532H32.112V5.31932H32.964ZM34.272 4.01132H30.828V12.1113H32.112V11.0433H34.272V4.01132ZM36.144 12.5433V11.7513H39.66V12.5433H36.144ZM39.66 9.85532V10.5873H36.144V9.85532H39.66ZM34.728 8.65532V14.1753H36.144V13.7433H39.66V14.1153H41.136V8.65532H34.728Z" fill="white"/>
</svg>
