<svg width="12" height="16" viewBox="0 0 12 16" fill="none" xmlns="http://www.w3.org/2000/svg">
<path d="M6.40005 10.4C7.24874 10.4 8.06267 10.0629 8.66279 9.46274C9.26291 8.86263 9.60005 8.04869 9.60005 7.2V3.2C9.60005 2.35131 9.26291 1.53737 8.66279 0.937258C8.06267 0.337142 7.24874 0 6.40005 0C5.55136 0 4.73742 0.337142 4.13731 0.937258C3.53719 1.53737 3.20005 2.35131 3.20005 3.2V7.2C3.20005 8.04869 3.53719 8.86263 4.13731 9.46274C4.73742 10.0629 5.55136 10.4 6.40005 10.4Z" fill="white"/>
<path d="M12 7.2C12 6.98783 11.9158 6.78434 11.7657 6.63432C11.6157 6.48429 11.4122 6.4 11.2 6.4C10.9879 6.4 10.7844 6.48429 10.6344 6.63432C10.4843 6.78434 10.4 6.98783 10.4 7.2C10.4 8.26087 9.97862 9.27828 9.22847 10.0284C8.47833 10.7786 7.46091 11.2 6.40005 11.2C5.33918 11.2 4.32177 10.7786 3.57162 10.0284C2.82148 9.27828 2.40005 8.26087 2.40005 7.2C2.40005 6.98783 2.31576 6.78434 2.16573 6.63432C2.0157 6.48429 1.81222 6.4 1.60005 6.4C1.38788 6.4 1.18439 6.48429 1.03436 6.63432C0.884334 6.78434 0.800049 6.98783 0.800049 7.2C0.801626 8.54548 1.28757 9.84541 2.16899 10.862C3.05041 11.8785 4.26837 12.5438 5.60005 12.736V14.4H3.91205C3.72321 14.4 3.54211 14.475 3.40859 14.6085C3.27506 14.7421 3.20005 14.9232 3.20005 15.112V15.288C3.20005 15.4768 3.27506 15.6579 3.40859 15.7915C3.54211 15.925 3.72321 16 3.91205 16H8.88805C9.07688 16 9.25798 15.925 9.39151 15.7915C9.52503 15.6579 9.60005 15.4768 9.60005 15.288V15.112C9.60005 14.9232 9.52503 14.7421 9.39151 14.6085C9.25798 14.475 9.07688 14.4 8.88805 14.4H7.20005V12.736C8.53173 12.5438 9.74969 11.8785 10.6311 10.862C11.5125 9.84541 11.9985 8.54548 12 7.2Z" fill="white"/>
</svg>
