<svg width="36" height="18" viewBox="0 0 36 18" fill="none" xmlns="http://www.w3.org/2000/svg">
<rect width="36" height="17" rx="8.5" transform="matrix(-1 0 0 1 36 0.5)" fill="white"/>
<path d="M20.3429 8.99999C20.3429 12.7713 23.4002 15.8285 27.1715 15.8285C30.9428 15.8285 34 12.7713 34 8.99999C34 5.22869 30.9428 2.17145 27.1715 2.17145C23.4002 2.17145 20.3429 5.22869 20.3429 8.99999Z" fill="#F74768"/>
<path d="M20.3429 8.99999C20.3429 12.7713 23.4002 15.8285 27.1715 15.8285C30.9428 15.8285 34 12.7713 34 8.99999C34 5.22869 30.9428 2.17145 27.1715 2.17145C23.4002 2.17145 20.3429 5.22869 20.3429 8.99999Z" fill="#174780"/>
</svg>
