<svg width="65" height="64" viewBox="0 0 65 64" fill="none" xmlns="http://www.w3.org/2000/svg">
<circle cx="32.5" cy="32" r="32" fill="#F74768"/>
<path d="M18.4996 34.36V39.98C18.4996 41.44 19.2996 42.8 20.5796 43.5L30.5796 48.96C31.7796 49.62 33.2196 49.62 34.4196 48.96L44.4196 43.5C45.6996 42.8 46.4996 41.44 46.4996 39.98V34.36L34.4196 40.96C33.2196 41.62 31.7796 41.62 30.5796 40.96L18.4996 34.36ZM30.5796 15.04L13.7196 24.24C12.3396 25 12.3396 27 13.7196 27.76L30.5796 36.96C31.7796 37.62 33.2196 37.62 34.4196 36.96L50.4996 28.18V40C50.4996 41.1 51.3996 42 52.4996 42C53.5996 42 54.4996 41.1 54.4996 40V27.18C54.4996 26.44 54.0996 25.78 53.4596 25.42L34.4196 15.04C33.2196 14.4 31.7796 14.4 30.5796 15.04Z" fill="white" fill-opacity="0.9"/>
</svg>
