<svg width="64" height="64" viewBox="0 0 64 64" fill="none" xmlns="http://www.w3.org/2000/svg">
<circle cx="32" cy="32" r="32" fill="black" fill-opacity="0.5"/>
<path d="M17.9996 34.36V39.98C17.9996 41.44 18.7996 42.8 20.0796 43.5L30.0796 48.96C31.2796 49.62 32.7196 49.62 33.9196 48.96L43.9196 43.5C45.1996 42.8 45.9996 41.44 45.9996 39.98V34.36L33.9196 40.96C32.7196 41.62 31.2796 41.62 30.0796 40.96L17.9996 34.36ZM30.0796 15.04L13.2196 24.24C11.8396 25 11.8396 27 13.2196 27.76L30.0796 36.96C31.2796 37.62 32.7196 37.62 33.9196 36.96L49.9996 28.18V40C49.9996 41.1 50.8996 42 51.9996 42C53.0996 42 53.9996 41.1 53.9996 40V27.18C53.9996 26.44 53.5996 25.78 52.9596 25.42L33.9196 15.04C32.7196 14.4 31.2796 14.4 30.0796 15.04Z" fill="white" fill-opacity="0.5"/>
</svg>
