<svg width="21" height="21" viewBox="0 0 21 21" fill="none" xmlns="http://www.w3.org/2000/svg">
<rect x="0.0439453" y="0.927551" width="20" height="20" rx="10" fill="white"/>
<g clip-path="url(#clip0_3111_7088)">
<path d="M13.8359 4.96924L11.1276 7.67757V13.6359L13.8359 11.1984V4.96924ZM4.08594 7.67757V15.613C4.08594 15.7484 4.22135 15.8838 4.35677 15.8838C4.41094 15.8838 4.43802 15.8567 4.49219 15.8567C5.22344 15.5047 6.27969 15.2609 7.0651 15.2609C8.12135 15.2609 9.25885 15.4776 10.0443 16.0734V7.67757C9.25885 7.08174 8.12135 6.86507 7.0651 6.86507C6.00885 6.86507 4.87135 7.08174 4.08594 7.67757ZM16.0026 14.9901V7.67757C15.6776 7.43382 15.3255 7.27132 14.9193 7.1359V14.4484C14.3234 14.2588 13.6734 14.1776 13.0234 14.1776C12.1026 14.1776 10.7755 14.5297 10.0443 14.9901V16.0734C10.7755 15.613 12.1026 15.2609 13.0234 15.2609C13.9172 15.2609 14.838 15.4234 15.5964 15.8297C15.6505 15.8567 15.6776 15.8567 15.7318 15.8567C15.8672 15.8567 16.0026 15.7213 16.0026 15.5859V14.9901Z" fill="#323232"/>
</g>
<defs>
<clipPath id="clip0_3111_7088">
<rect width="13" height="13" fill="white" transform="translate(3.54395 4.42755)"/>
</clipPath>
</defs>
</svg>
