<svg width="15" height="20" viewBox="0 0 15 20" fill="none" xmlns="http://www.w3.org/2000/svg">
<path d="M0.299988 2.7751V17.1751C0.299988 17.8116 0.552844 18.4221 1.00293 18.8722C1.45302 19.3222 2.06347 19.5751 2.69999 19.5751H14.1C14.2591 19.5751 14.4117 19.5119 14.5243 19.3994C14.6368 19.2868 14.7 19.1342 14.7 18.9751C14.7 18.816 14.6368 18.6634 14.5243 18.5508C14.4117 18.4383 14.2591 18.3751 14.1 18.3751H2.69999C2.38173 18.3751 2.0765 18.2487 1.85146 18.0236C1.62642 17.7986 1.49999 17.4934 1.49999 17.1751H13.5C13.8182 17.1751 14.1235 17.0487 14.3485 16.8236C14.5736 16.5986 14.7 16.2934 14.7 15.9751V2.7751C14.7 2.13858 14.4471 1.52813 13.997 1.07804C13.547 0.627955 12.9365 0.375099 12.3 0.375099H2.69999C2.06347 0.375099 1.45302 0.627955 1.00293 1.07804C0.552844 1.52813 0.299988 2.13858 0.299988 2.7751ZM12.3 1.5751C12.6182 1.5751 12.9235 1.70153 13.1485 1.92657C13.3736 2.15161 13.5 2.45684 13.5 2.7751V15.9751H1.49999V2.7751C1.49999 2.45684 1.62642 2.15161 1.85146 1.92657C2.0765 1.70153 2.38173 1.5751 2.69999 1.5751H12.3ZM8.39999 4.8751C8.39999 4.6364 8.30517 4.40749 8.13638 4.2387C7.9676 4.06992 7.73868 3.9751 7.49999 3.9751C7.26129 3.9751 7.03237 4.06992 6.86359 4.2387C6.69481 4.40749 6.59999 4.6364 6.59999 4.8751C6.59999 5.11379 6.69481 5.34271 6.86359 5.5115C7.03237 5.68028 7.26129 5.7751 7.49999 5.7751C7.73868 5.7751 7.9676 5.68028 8.13638 5.5115C8.30517 5.34271 8.39999 5.11379 8.39999 4.8751ZM8.09999 12.9751C8.09999 13.1342 8.03677 13.2868 7.92425 13.3994C7.81173 13.5119 7.65912 13.5751 7.49999 13.5751C7.34086 13.5751 7.18824 13.5119 7.07572 13.3994C6.9632 13.2868 6.89999 13.1342 6.89999 12.9751V8.1751C6.89999 8.01597 6.9632 7.86336 7.07572 7.75083C7.18824 7.63831 7.34086 7.5751 7.49999 7.5751C7.65912 7.5751 7.81173 7.63831 7.92425 7.75083C8.03677 7.86336 8.09999 8.01597 8.09999 8.1751V12.9751Z" fill="white"/>
</svg>
