<svg width="15" height="16" viewBox="0 0 15 16" fill="none" xmlns="http://www.w3.org/2000/svg">
<g clip-path="url(#clip0_2370_1587)">
<path d="M12.1875 5.81329H11.7188C11.4598 5.81329 11.25 6.02306 11.25 6.28204V7.68829C11.25 9.8797 9.36064 11.6381 7.12529 11.4201C5.17705 11.23 3.75 9.47863 3.75 7.5213V6.28204C3.75 6.02306 3.54023 5.81329 3.28125 5.81329H2.8125C2.55352 5.81329 2.34375 6.02306 2.34375 6.28204V7.45861C2.34375 10.0848 4.21787 12.4259 6.79688 12.7816V13.782H5.15625C4.89727 13.782 4.6875 13.9918 4.6875 14.2508V14.7195C4.6875 14.9785 4.89727 15.1883 5.15625 15.1883H9.84375C10.1027 15.1883 10.3125 14.9785 10.3125 14.7195V14.2508C10.3125 13.9918 10.1027 13.782 9.84375 13.782H8.20312V12.7927C10.7142 12.4482 12.6562 10.2928 12.6562 7.68829V6.28204C12.6562 6.02306 12.4465 5.81329 12.1875 5.81329ZM7.5 10.5008C9.05332 10.5008 10.3125 9.24161 10.3125 7.68829H7.8126C7.64004 7.68829 7.5 7.58341 7.5 7.45392V6.98517C7.5 6.85568 7.64004 6.75079 7.8126 6.75079H10.3125V5.81329H7.8126C7.64004 5.81329 7.5 5.70841 7.5 5.57892V5.11017C7.5 4.98068 7.64004 4.87579 7.8126 4.87579H10.3125V3.93829H7.8126C7.64004 3.93829 7.5 3.83341 7.5 3.70392V3.23517C7.5 3.10568 7.64004 3.00079 7.8126 3.00079H10.3125C10.3125 1.44747 9.05332 0.188293 7.5 0.188293C5.94668 0.188293 4.6875 1.44747 4.6875 3.00079V7.68829C4.6875 9.24161 5.94668 10.5008 7.5 10.5008Z" fill="white"/>
</g>
<defs>
<clipPath id="clip0_2370_1587">
<rect width="15" height="15" fill="white" transform="translate(0 0.188293)"/>
</clipPath>
</defs>
</svg>
