<svg width="24" height="17" viewBox="0 0 24 17" fill="none" xmlns="http://www.w3.org/2000/svg">
<path d="M11.8688 0.5C9.94914 0.50602 8.09494 1.19838 6.64115 2.452C5.52697 3.412 4.71969 4.66291 4.51169 5.91818C2.07388 6.45636 0.232422 8.58 0.232422 11.1444C0.232422 14.1233 2.71679 16.5 5.73206 16.5H18.6862C21.3262 16.5 23.5051 14.42 23.5051 11.8062C23.5051 9.42655 21.6986 7.48764 19.383 7.16036C19.0295 3.40764 15.7815 0.5 11.8688 0.5ZM15.2928 7.98509C15.3604 8.05271 15.414 8.13298 15.4506 8.22133C15.4872 8.30968 15.5061 8.40437 15.5061 8.5C15.5061 8.59563 15.4872 8.69032 15.4506 8.77867C15.414 8.86702 15.3604 8.94729 15.2928 9.01491C15.2252 9.08253 15.1449 9.13617 15.0565 9.17276C14.9682 9.20936 14.8735 9.22819 14.7779 9.22819C14.6822 9.22819 14.5876 9.20936 14.4992 9.17276C14.4109 9.13617 14.3306 9.08253 14.263 9.01491L12.5961 7.34655V12.8636C12.5961 13.0565 12.5194 13.2415 12.383 13.3779C12.2467 13.5143 12.0617 13.5909 11.8688 13.5909C11.6759 13.5909 11.4909 13.5143 11.3545 13.3779C11.2181 13.2415 11.1415 13.0565 11.1415 12.8636V7.34655L9.4746 9.01491C9.33804 9.15147 9.15282 9.22819 8.95969 9.22819C8.76657 9.22819 8.58135 9.15147 8.44479 9.01491C8.30822 8.87835 8.2315 8.69313 8.2315 8.5C8.2315 8.30687 8.30822 8.12165 8.44479 7.98509L11.3539 5.076C11.4214 5.00827 11.5017 4.95454 11.59 4.91787C11.6784 4.88121 11.7731 4.86234 11.8688 4.86234C11.9644 4.86234 12.0592 4.88121 12.1475 4.91787C12.2359 4.95454 12.3161 5.00827 12.3837 5.076L15.2928 7.98509Z" fill="white"/>
</svg>
