<svg width="18" height="17" viewBox="0 0 18 17" fill="none" xmlns="http://www.w3.org/2000/svg">
<path d="M17.1241 0.184998C6.73039 0.184998 4.65164 2.26375 4.65164 2.26375V10.7658C4.317 10.6499 3.96634 10.5867 3.61227 10.5787C1.8869 10.5787 0.494141 11.9715 0.494141 13.6969C0.494141 15.4222 1.8869 16.815 3.61227 16.815C5.33763 16.815 6.73039 15.4222 6.73039 13.6969V5.44423C8.24788 4.96612 10.8671 4.52959 15.0454 4.40486V8.68709C14.7108 8.57111 14.3601 8.50799 14.006 8.5C12.2807 8.5 10.8879 9.89276 10.8879 11.6181C10.8879 13.3435 12.2807 14.7362 14.006 14.7362C15.7314 14.7362 17.1241 13.3435 17.1241 11.6181V0.184998Z" fill="white"/>
</svg>
