<svg width="27" height="23" viewBox="0 0 27 23" fill="none" xmlns="http://www.w3.org/2000/svg">
<path fill-rule="evenodd" clip-rule="evenodd" d="M19.561 1.36436C19.9028 0.942439 20.5218 0.877453 20.9438 1.21921L24.2771 3.91921C24.5075 4.10587 24.6414 4.38659 24.6414 4.68315C24.6414 4.97972 24.5075 5.26044 24.2771 5.4471L20.9438 8.1471C20.5218 8.48886 19.9028 8.42387 19.561 8.00195C19.2193 7.58004 19.2842 6.96096 19.7062 6.61921L20.8826 5.66628H11.4361C9.5748 5.66628 7.82109 6.26692 6.55515 7.29233C5.29481 8.31321 4.64142 9.64793 4.64142 10.9832C4.64142 11.5261 4.20126 11.9663 3.65829 11.9663C3.11533 11.9663 2.67517 11.5261 2.67517 10.9832C2.67517 8.97665 3.66066 7.10651 5.31755 5.76443C6.96884 4.42689 9.17175 3.70003 11.4361 3.70003H20.8826L19.7062 2.7471C19.2842 2.40535 19.2193 1.78627 19.561 1.36436ZM23.6583 10C24.2013 10 24.6414 10.4402 24.6414 10.9832C24.6414 12.9897 23.6559 14.8598 21.999 16.2019C20.3477 17.5394 18.1448 18.2663 15.8805 18.2663H6.43397L7.61042 19.2192C8.03234 19.561 8.09733 20.18 7.75558 20.602C7.41382 21.0239 6.79475 21.0889 6.37283 20.7471L3.03949 18.0471C2.80904 17.8604 2.67517 17.5797 2.67517 17.2832C2.67517 16.9866 2.80904 16.7059 3.03949 16.5192L6.37283 13.8192C6.79475 13.4775 7.41382 13.5424 7.75558 13.9644C8.09733 14.3863 8.03234 15.0053 7.61042 15.3471L6.43397 16.3H15.8805C17.7418 16.3 19.4955 15.6994 20.7614 14.674C22.0218 13.6531 22.6752 12.3184 22.6752 10.9832C22.6752 10.4402 23.1153 10 23.6583 10Z" fill="white"/>
<path d="M13.7179 13.7272V9.48049C12.7785 10.0872 12.146 10.3905 11.8205 10.3905C11.6652 10.3905 11.5265 10.3392 11.4045 10.2365C11.2861 10.1307 11.2269 10.0094 11.2269 9.87249C11.2269 9.71382 11.2861 9.59715 11.4045 9.52249C11.5228 9.44782 11.7318 9.35138 12.0314 9.23315C12.4789 9.05582 12.8358 8.86915 13.1021 8.67315C13.3721 8.47715 13.6107 8.25782 13.8178 8.01515C14.0249 7.77249 14.1599 7.62315 14.2228 7.56715C14.2856 7.51115 14.404 7.48315 14.5778 7.48315C14.7739 7.48315 14.931 7.54693 15.0494 7.67449C15.1678 7.80204 15.2269 7.97782 15.2269 8.20182V13.5452C15.2269 14.1705 14.9736 14.4832 14.4669 14.4832C14.2413 14.4832 14.06 14.4194 13.9232 14.2918C13.7863 14.1643 13.7179 13.976 13.7179 13.7272Z" fill="white"/>
</svg>
