<svg width="24" height="23" viewBox="0 0 24 23" fill="none" xmlns="http://www.w3.org/2000/svg">
<path d="M18.6667 2L22 4.7M22 4.7L18.6667 7.4M22 4.7H9.77778C7.71498 4.7 5.73667 5.36375 4.27806 6.54523C2.81944 7.72671 2 9.32914 2 11M5.33333 20L2 17.3M2 17.3L5.33333 14.6M2 17.3H14.2222C16.285 17.3 18.2633 16.6363 19.7219 15.4548C21.1806 14.2733 22 12.6709 22 11" stroke="white" stroke-width="1.96624" stroke-linecap="round" stroke-linejoin="round"/>
<path d="M9.18999 12.4849C8.92867 12.4849 8.70317 12.4006 8.51351 12.232C8.32384 12.0634 8.229 11.8274 8.229 11.5239C8.229 11.2668 8.31962 11.0455 8.50086 10.8601C8.6821 10.6746 8.90549 10.5819 9.17102 10.5819C9.43656 10.5819 9.66205 10.6746 9.8475 10.8601C10.0372 11.0413 10.132 11.2626 10.132 11.5239C10.132 11.8232 10.0372 12.0592 9.8475 12.232C9.66205 12.4006 9.44288 12.4849 9.18999 12.4849Z" fill="white"/>
<path d="M12.731 12.4849C12.4696 12.4849 12.2441 12.4006 12.0545 12.232C11.8648 12.0634 11.77 11.8274 11.77 11.5239C11.77 11.2668 11.8606 11.0455 12.0418 10.8601C12.2231 10.6746 12.4465 10.5819 12.712 10.5819C12.9775 10.5819 13.203 10.6746 13.3885 10.8601C13.5781 11.0413 13.673 11.2626 13.673 11.5239C13.673 11.8232 13.5781 12.0592 13.3885 12.232C13.203 12.4006 12.9839 12.4849 12.731 12.4849Z" fill="white"/>
<path d="M16.2719 12.4849C16.0106 12.4849 15.7851 12.4006 15.5955 12.232C15.4058 12.0634 15.311 11.8274 15.311 11.5239C15.311 11.2668 15.4016 11.0455 15.5828 10.8601C15.764 10.6746 15.9874 10.5819 16.253 10.5819C16.5185 10.5819 16.744 10.6746 16.9295 10.8601C17.1191 11.0413 17.214 11.2626 17.214 11.5239C17.214 11.8232 17.1191 12.0592 16.9295 12.232C16.744 12.4006 16.5248 12.4849 16.2719 12.4849Z" fill="white"/>
</svg>
