<svg width="17" height="17" viewBox="0 0 17 17" fill="none" xmlns="http://www.w3.org/2000/svg">
<path d="M8.30274 1.5498C6.91827 1.5498 5.56489 1.96035 4.41375 2.72952C3.2626 3.49869 2.36539 4.59194 1.83558 5.87102C1.30577 7.1501 1.16714 8.55757 1.43724 9.91544C1.70734 11.2733 2.37402 12.5206 3.35299 13.4996C4.33196 14.4785 5.57924 15.1452 6.93711 15.4153C8.29497 15.6854 9.70244 15.5468 10.9815 15.017C12.2606 14.4871 13.3539 13.5899 14.123 12.4388C14.8922 11.2877 15.3027 9.93427 15.3027 8.5498C15.3027 6.69329 14.5652 4.91281 13.2525 3.60006C11.9397 2.2873 10.1593 1.5498 8.30274 1.5498ZM8.30274 14.5498C7.11605 14.5498 5.95601 14.1979 4.96932 13.5386C3.98262 12.8793 3.21359 11.9423 2.75946 10.8459C2.30533 9.74955 2.18651 8.54315 2.41803 7.37926C2.64954 6.21538 3.22098 5.14628 4.0601 4.30716C4.89921 3.46805 5.96831 2.8966 7.1322 2.66509C8.29608 2.43358 9.50248 2.5524 10.5988 3.00653C11.6952 3.46065 12.6323 4.22969 13.2916 5.21638C13.9508 6.20308 14.3027 7.36312 14.3027 8.5498C14.3027 10.1411 13.6706 11.6672 12.5454 12.7924C11.4202 13.9177 9.89404 14.5498 8.30274 14.5498Z" fill="white"/>
<path d="M8.30274 5.5498C7.70939 5.5498 7.12937 5.72575 6.63602 6.0554C6.14268 6.38504 5.75816 6.85358 5.5311 7.40175C5.30403 7.94993 5.24462 8.55313 5.36038 9.13508C5.47614 9.71702 5.76186 10.2516 6.18142 10.6711C6.60097 11.0907 7.13552 11.3764 7.71746 11.4922C8.29941 11.6079 8.90261 11.5485 9.45079 11.3214C9.99896 11.0944 10.4675 10.7099 10.7971 10.2165C11.1268 9.72317 11.3027 9.14315 11.3027 8.5498C11.3027 7.75416 10.9867 6.99109 10.4241 6.42848C9.86145 5.86588 9.09839 5.5498 8.30274 5.5498Z" fill="white"/>
</svg>
